<svg id="圖層_1" data-name="圖層 1" xmlns="http://www.w3.org/2000/svg" viewBox="0 0 1920 1080">
  <defs>
    <style>
      .cls-1 {
        fill: #95a4ad;
      }

      .cls-2 {
        fill: #009e9c;
      }

      .cls-3 {
        fill: #62757d;
      }

      .cls-4 {
        fill: #63757e;
      }

      .cls-5 {
        fill: #fff;
      }

      .cls-6 {
        fill: #92a1a5;
      }

      .cls-121, .cls-62, .cls-7 {
        fill: #00a0de;
      }

      .cls-7 {
        opacity: 0;
      }

      .cls-122, .cls-63, .cls-8 {
        fill: #00a0dd;
      }

      .cls-8 {
        opacity: 0.01;
      }

      .cls-123, .cls-64, .cls-9 {
        fill: #00a0dc;
      }

      .cls-9 {
        opacity: 0.02;
      }

      .cls-10, .cls-124, .cls-65 {
        fill: #00a0db;
      }

      .cls-10 {
        opacity: 0.03;
      }

      .cls-11, .cls-125, .cls-66 {
        fill: #00a0da;
      }

      .cls-11 {
        opacity: 0.03;
      }

      .cls-12, .cls-126, .cls-67 {
        fill: #00a0d9;
      }

      .cls-12 {
        opacity: 0.04;
      }

      .cls-127, .cls-13, .cls-68 {
        fill: #00a0d8;
      }

      .cls-13 {
        opacity: 0.05;
      }

      .cls-128, .cls-14, .cls-69 {
        fill: #00a0d7;
      }

      .cls-14 {
        opacity: 0.06;
      }

      .cls-129, .cls-15, .cls-70 {
        fill: #00a0d6;
      }

      .cls-15 {
        opacity: 0.07;
      }

      .cls-130, .cls-16, .cls-71 {
        fill: #00a0d5;
      }

      .cls-16 {
        opacity: 0.08;
      }

      .cls-131, .cls-17, .cls-72 {
        fill: #00a0d4;
      }

      .cls-17 {
        opacity: 0.08;
      }

      .cls-132, .cls-18, .cls-73 {
        fill: #00a0d3;
      }

      .cls-18 {
        opacity: 0.09;
      }

      .cls-133, .cls-19, .cls-74 {
        fill: #00a0d2;
      }

      .cls-19 {
        opacity: 0.1;
      }

      .cls-134, .cls-20, .cls-75 {
        fill: #00a0d1;
      }

      .cls-20 {
        opacity: 0.11;
      }

      .cls-135, .cls-21, .cls-76 {
        fill: #00a0d0;
      }

      .cls-21 {
        opacity: 0.12;
      }

      .cls-22, .cls-77 {
        fill: #00a0cf;
      }

      .cls-22 {
        opacity: 0.13;
      }

      .cls-23, .cls-78 {
        fill: #00a0ce;
      }

      .cls-23 {
        opacity: 0.14;
      }

      .cls-24, .cls-79 {
        fill: #00a0cd;
      }

      .cls-24 {
        opacity: 0.14;
      }

      .cls-25, .cls-80 {
        fill: #00a0cc;
      }

      .cls-25 {
        opacity: 0.15;
      }

      .cls-26, .cls-81 {
        fill: #00a0cb;
      }

      .cls-26 {
        opacity: 0.16;
      }

      .cls-27, .cls-82 {
        fill: #00a0ca;
      }

      .cls-27 {
        opacity: 0.17;
      }

      .cls-28, .cls-83 {
        fill: #00a0c9;
      }

      .cls-28 {
        opacity: 0.18;
      }

      .cls-29, .cls-84 {
        fill: #00a0c8;
      }

      .cls-29 {
        opacity: 0.19;
      }

      .cls-30, .cls-85 {
        fill: #00a0c7;
      }

      .cls-30 {
        opacity: 0.2;
      }

      .cls-31, .cls-86 {
        fill: #00a0c6;
      }

      .cls-31 {
        opacity: 0.2;
      }

      .cls-32, .cls-87 {
        fill: #00a0c5;
      }

      .cls-32 {
        opacity: 0.21;
      }

      .cls-33, .cls-88 {
        fill: #00a0c4;
      }

      .cls-33 {
        opacity: 0.22;
      }

      .cls-34, .cls-89 {
        fill: #00a1c4;
      }

      .cls-34 {
        opacity: 0.23;
      }

      .cls-35, .cls-90 {
        fill: #00a1c3;
      }

      .cls-35 {
        opacity: 0.24;
      }

      .cls-36, .cls-91 {
        fill: #00a1c2;
      }

      .cls-36 {
        opacity: 0.25;
      }

      .cls-37, .cls-92 {
        fill: #00a1c1;
      }

      .cls-37 {
        opacity: 0.25;
      }

      .cls-38, .cls-93 {
        fill: #00a1c0;
      }

      .cls-38 {
        opacity: 0.26;
      }

      .cls-39, .cls-94 {
        fill: #00a1bf;
      }

      .cls-39 {
        opacity: 0.27;
      }

      .cls-40, .cls-95 {
        fill: #00a1be;
      }

      .cls-40 {
        opacity: 0.28;
      }

      .cls-41, .cls-96 {
        fill: #00a1bd;
      }

      .cls-41 {
        opacity: 0.29;
      }

      .cls-42, .cls-97 {
        fill: #00a1bc;
      }

      .cls-42 {
        opacity: 0.3;
      }

      .cls-43, .cls-98 {
        fill: #00a1bb;
      }

      .cls-43 {
        opacity: 0.31;
      }

      .cls-44, .cls-99 {
        fill: #00a1ba;
      }

      .cls-44 {
        opacity: 0.31;
      }

      .cls-100, .cls-45 {
        fill: #00a1b9;
      }

      .cls-45 {
        opacity: 0.32;
      }

      .cls-101, .cls-46 {
        fill: #00a1b8;
      }

      .cls-46 {
        opacity: 0.33;
      }

      .cls-102, .cls-47 {
        fill: #00a1b7;
      }

      .cls-47 {
        opacity: 0.34;
      }

      .cls-103, .cls-48 {
        fill: #00a1b6;
      }

      .cls-48 {
        opacity: 0.35;
      }

      .cls-104, .cls-49 {
        fill: #00a1b5;
      }

      .cls-49 {
        opacity: 0.36;
      }

      .cls-105, .cls-50 {
        fill: #00a1b4;
      }

      .cls-50 {
        opacity: 0.37;
      }

      .cls-106, .cls-51 {
        fill: #00a1b3;
      }

      .cls-51 {
        opacity: 0.37;
      }

      .cls-107, .cls-52 {
        fill: #00a1b2;
      }

      .cls-52 {
        opacity: 0.38;
      }

      .cls-108, .cls-53 {
        fill: #00a1b1;
      }

      .cls-53 {
        opacity: 0.39;
      }

      .cls-109, .cls-54 {
        fill: #00a1b0;
      }

      .cls-54 {
        opacity: 0.4;
      }

      .cls-110, .cls-55 {
        fill: #00a1af;
      }

      .cls-55 {
        opacity: 0.41;
      }

      .cls-111, .cls-56 {
        fill: #00a1ae;
      }

      .cls-56 {
        opacity: 0.42;
      }

      .cls-112, .cls-57 {
        fill: #00a1ad;
      }

      .cls-57 {
        opacity: 0.42;
      }

      .cls-113, .cls-58 {
        fill: #00a1ac;
      }

      .cls-58 {
        opacity: 0.43;
      }

      .cls-114, .cls-59 {
        fill: #00a1ab;
      }

      .cls-59 {
        opacity: 0.44;
      }

      .cls-115, .cls-60 {
        fill: #00a1aa;
      }

      .cls-60 {
        opacity: 0.45;
      }

      .cls-61 {
        opacity: 0.3;
      }

      .cls-62 {
        opacity: 0.6;
      }

      .cls-63 {
        opacity: 0.6;
      }

      .cls-64 {
        opacity: 0.6;
      }

      .cls-65 {
        opacity: 0.61;
      }

      .cls-66 {
        opacity: 0.61;
      }

      .cls-67 {
        opacity: 0.61;
      }

      .cls-68 {
        opacity: 0.61;
      }

      .cls-69 {
        opacity: 0.61;
      }

      .cls-70 {
        opacity: 0.62;
      }

      .cls-71 {
        opacity: 0.62;
      }

      .cls-72 {
        opacity: 0.62;
      }

      .cls-73 {
        opacity: 0.62;
      }

      .cls-74 {
        opacity: 0.62;
      }

      .cls-75 {
        opacity: 0.62;
      }

      .cls-76 {
        opacity: 0.63;
      }

      .cls-77 {
        opacity: 0.63;
      }

      .cls-78 {
        opacity: 0.63;
      }

      .cls-79 {
        opacity: 0.63;
      }

      .cls-80 {
        opacity: 0.63;
      }

      .cls-81 {
        opacity: 0.64;
      }

      .cls-82 {
        opacity: 0.64;
      }

      .cls-83 {
        opacity: 0.64;
      }

      .cls-84 {
        opacity: 0.64;
      }

      .cls-85 {
        opacity: 0.64;
      }

      .cls-86 {
        opacity: 0.65;
      }

      .cls-87 {
        opacity: 0.65;
      }

      .cls-88 {
        opacity: 0.65;
      }

      .cls-89 {
        opacity: 0.65;
      }

      .cls-90 {
        opacity: 0.65;
      }

      .cls-91 {
        opacity: 0.65;
      }

      .cls-92 {
        opacity: 0.66;
      }

      .cls-93 {
        opacity: 0.66;
      }

      .cls-94 {
        opacity: 0.66;
      }

      .cls-95 {
        opacity: 0.66;
      }

      .cls-96 {
        opacity: 0.66;
      }

      .cls-97 {
        opacity: 0.67;
      }

      .cls-98 {
        opacity: 0.67;
      }

      .cls-99 {
        opacity: 0.67;
      }

      .cls-100 {
        opacity: 0.67;
      }

      .cls-101 {
        opacity: 0.67;
      }

      .cls-102 {
        opacity: 0.68;
      }

      .cls-103 {
        opacity: 0.68;
      }

      .cls-104 {
        opacity: 0.68;
      }

      .cls-105 {
        opacity: 0.68;
      }

      .cls-106 {
        opacity: 0.68;
      }

      .cls-107 {
        opacity: 0.68;
      }

      .cls-108 {
        opacity: 0.69;
      }

      .cls-109 {
        opacity: 0.69;
      }

      .cls-110 {
        opacity: 0.69;
      }

      .cls-111 {
        opacity: 0.69;
      }

      .cls-112 {
        opacity: 0.69;
      }

      .cls-113 {
        opacity: 0.7;
      }

      .cls-114 {
        opacity: 0.7;
      }

      .cls-115 {
        opacity: 0.7;
      }

      .cls-116 {
        fill: #00a0e3;
      }

      .cls-117 {
        fill: #00a0e2;
      }

      .cls-118 {
        fill: #00a0e1;
      }

      .cls-119 {
        fill: #00a0e0;
      }

      .cls-120 {
        fill: #00a0df;
      }

      .cls-136 {
        fill: #009fcf;
      }

      .cls-137 {
        fill: #009fce;
      }

      .cls-138 {
        fill: #009fcd;
      }

      .cls-139 {
        fill: #009fcc;
      }

      .cls-140 {
        fill: #009fcb;
      }

      .cls-141 {
        fill: #009fca;
      }

      .cls-142 {
        fill: #009fc9;
      }

      .cls-143 {
        fill: #009fc8;
      }

      .cls-144 {
        fill: #009fc7;
      }

      .cls-145 {
        fill: #009fc6;
      }

      .cls-146 {
        fill: #009fc5;
      }

      .cls-147 {
        fill: #009fc4;
      }

      .cls-148 {
        fill: #009fc3;
      }

      .cls-149 {
        fill: #009fc2;
      }

      .cls-150 {
        fill: #009fc1;
      }

      .cls-151 {
        fill: #009fc0;
      }

      .cls-152 {
        fill: #009fbf;
      }

      .cls-153 {
        fill: #009fbe;
      }

      .cls-154 {
        fill: #009fbd;
      }

      .cls-155 {
        fill: #009fbc;
      }

      .cls-156 {
        fill: #009fbb;
      }

      .cls-157 {
        fill: #009fba;
      }

      .cls-158 {
        fill: #009fb9;
      }

      .cls-159 {
        fill: #009fb8;
      }

      .cls-160 {
        fill: #009fb7;
      }

      .cls-161 {
        fill: #009fb6;
      }

      .cls-162 {
        fill: #009fb5;
      }

      .cls-163 {
        fill: #009fb4;
      }

      .cls-164 {
        fill: #009fb3;
      }

      .cls-165 {
        fill: #009fb2;
      }

      .cls-166 {
        fill: #009fb1;
      }

      .cls-167 {
        fill: #009fb0;
      }

      .cls-168 {
        fill: #009faf;
      }

      .cls-169 {
        fill: #009fae;
      }

      .cls-170 {
        fill: #009fad;
      }

      .cls-171 {
        fill: #009fac;
      }

      .cls-172 {
        fill: #009fab;
      }

      .cls-173 {
        fill: #009faa;
      }

      .cls-174 {
        fill: #009ea9;
      }

      .cls-175 {
        fill: #009ea8;
      }

      .cls-176 {
        fill: #009ea7;
      }

      .cls-177 {
        fill: #009ea6;
      }

      .cls-178 {
        fill: #009ea5;
      }

      .cls-179 {
        fill: #009ea4;
      }

      .cls-180 {
        fill: #009ea3;
      }

      .cls-181 {
        fill: #009ea2;
      }

      .cls-182 {
        fill: #009ea1;
      }

      .cls-183 {
        fill: #009ea0;
      }

      .cls-184 {
        fill: #009e9f;
      }

      .cls-185 {
        fill: #009e9e;
      }

      .cls-186 {
        fill: #009e9d;
      }

      .cls-187 {
        fill: #009e9b;
      }

      .cls-188 {
        fill: #009e9a;
      }

      .cls-189 {
        fill: #009e99;
      }

      .cls-190 {
        fill: #009e98;
      }

      .cls-191 {
        fill: #009e97;
      }

      .cls-192 {
        fill: #009e96;
      }
    </style>
  </defs>
  <title>封面圖</title>
  <g>
    <g>
      <path class="cls-1" d="M390.14,122.67a8.64,8.64,0,0,1-2.43,3,10.88,10.88,0,0,1-3.72,1.88,16.45,16.45,0,0,1-4.72.64,19.62,19.62,0,0,1-6.47-1,13.33,13.33,0,0,1-5.09-3.35l3.3-3.26a9.7,9.7,0,0,0,3.81,2.46,14.51,14.51,0,0,0,4.55.66,8.25,8.25,0,0,0,5-1.31,4.92,4.92,0,0,0,.48-7.09,4.18,4.18,0,0,0-1.38-.87,11.87,11.87,0,0,0-2.2-.51l-3.86-.55a11,11,0,0,1-6.2-2.62,8.16,8.16,0,0,1-2.39-6.24,9.75,9.75,0,0,1,.76-3.88,8.79,8.79,0,0,1,2.16-3.05,9.55,9.55,0,0,1,3.42-2,14.16,14.16,0,0,1,4.59-.69,16.49,16.49,0,0,1,5.65.87,13.3,13.3,0,0,1,4.5,2.85l-3.17,3.12a8,8,0,0,0-3.28-2,13.32,13.32,0,0,0-3.83-.53,6.23,6.23,0,0,0-4.43,1.45,4.8,4.8,0,0,0-1.54,3.65,4.53,4.53,0,0,0,.3,1.67,3.67,3.67,0,0,0,.94,1.35,7,7,0,0,0,3.67,1.52l3.72.55a16.65,16.65,0,0,1,3.67.94,8.85,8.85,0,0,1,2.43,1.49,7.53,7.53,0,0,1,2,2.89,10.43,10.43,0,0,1,.66,3.81A9.11,9.11,0,0,1,390.14,122.67Z"/>
      <path class="cls-1" d="M397.67,128V95.27h5V128Z"/>
      <path class="cls-1" d="M422.22,99.73V128h-5V99.73h-9V95.27h22.95v4.45Z"/>
      <path class="cls-1" d="M456.72,122.49a11,11,0,0,1-2.57,3.17,10.52,10.52,0,0,1-3.49,1.93,13.15,13.15,0,0,1-4.15.64,12.23,12.23,0,0,1-4.73-.89,11.74,11.74,0,0,1-3.85-2.59,9.26,9.26,0,0,1-1.84-2.52,11.62,11.62,0,0,1-.94-2.89,21,21,0,0,1-.34-3.46q0-1.91,0-4.24t0-4.25a21,21,0,0,1,.34-3.46,11.64,11.64,0,0,1,.94-2.89,9.26,9.26,0,0,1,1.84-2.52,11.77,11.77,0,0,1,3.85-2.59A12.23,12.23,0,0,1,446.5,95a11.66,11.66,0,0,1,7.66,2.57,12,12,0,0,1,4,7.48h-5a8.07,8.07,0,0,0-2.23-4,6.07,6.07,0,0,0-4.38-1.56,6.84,6.84,0,0,0-2.71.53,6,6,0,0,0-3.1,2.85,6.66,6.66,0,0,0-.6,1.88,22.1,22.1,0,0,0-.3,2.78c-.06,1.1-.09,2.48-.09,4.13s0,3,.09,4.13a22.06,22.06,0,0,0,.3,2.78,6.64,6.64,0,0,0,.6,1.88,6,6,0,0,0,3.1,2.85,6.84,6.84,0,0,0,2.71.53,6.15,6.15,0,0,0,4.41-1.56,8,8,0,0,0,2.25-4h5A13.64,13.64,0,0,1,456.72,122.49Z"/>
      <path class="cls-1" d="M487,115.86a23.48,23.48,0,0,1-.32,3.46,11,11,0,0,1-.92,2.89,9.33,9.33,0,0,1-1.83,2.52,11.8,11.8,0,0,1-3.86,2.59,12.35,12.35,0,0,1-4.77.89,12.18,12.18,0,0,1-4.75-.89,11.85,11.85,0,0,1-3.83-2.59,9.26,9.26,0,0,1-1.84-2.52,11.62,11.62,0,0,1-.94-2.89,21,21,0,0,1-.34-3.46q0-1.91,0-4.24t0-4.25a21,21,0,0,1,.34-3.46,11.64,11.64,0,0,1,.94-2.89,9.26,9.26,0,0,1,1.84-2.52,11.88,11.88,0,0,1,3.83-2.59,12.18,12.18,0,0,1,4.75-.89,12.35,12.35,0,0,1,4.77.89A11.83,11.83,0,0,1,484,98.49a9.33,9.33,0,0,1,1.83,2.52,11,11,0,0,1,.92,2.89,23.48,23.48,0,0,1,.32,3.46c0,1.27,0,2.69,0,4.25S487.06,114.59,487,115.86Zm-5-8.35a20.33,20.33,0,0,0-.28-2.75,6.66,6.66,0,0,0-.6-1.88,6.24,6.24,0,0,0-1-1.4,6.48,6.48,0,0,0-2.13-1.47,7.05,7.05,0,0,0-5.46,0,6.49,6.49,0,0,0-2.14,1.47,6.37,6.37,0,0,0-1,1.4,6.93,6.93,0,0,0-.6,1.88,21.07,21.07,0,0,0-.27,2.75q-.07,1.63-.07,4.11t.07,4.11a21,21,0,0,0,.27,2.75,6.91,6.91,0,0,0,.6,1.88,6.37,6.37,0,0,0,1,1.4,6.46,6.46,0,0,0,2.14,1.47,7.05,7.05,0,0,0,5.46,0,6.45,6.45,0,0,0,2.13-1.47,6.24,6.24,0,0,0,1-1.4,6.64,6.64,0,0,0,.6-1.88,20.29,20.29,0,0,0,.28-2.75q.07-1.63.07-4.11T482,107.51Z"/>
      <path class="cls-1" d="M514.47,128l-15.1-23v23h-5V95.27H499l15.1,22.95V95.27h5V128Z"/>
    </g>
    <path class="cls-2" d="M532.46,127.95V100.37l-6.38,5.6v-5.19l6.38-5.51h4.68v32.68Z"/>
    <path class="cls-2" d="M564.83,122.7a8.74,8.74,0,0,1-2.16,3,9.35,9.35,0,0,1-3.21,1.88,12.46,12.46,0,0,1-7.9,0,9.16,9.16,0,0,1-3.19-1.88,8.83,8.83,0,0,1-2.13-3,9.71,9.71,0,0,1-.78-4,8.46,8.46,0,0,1,.39-2.66,9,9,0,0,1,1-2.14,8.42,8.42,0,0,1,1.42-1.65,10.31,10.31,0,0,1,1.68-1.21,8.9,8.9,0,0,1-2.78-2.69A7.55,7.55,0,0,1,546,104a9,9,0,0,1,.74-3.72,8.61,8.61,0,0,1,2-2.85,9,9,0,0,1,3-1.84,11.15,11.15,0,0,1,7.46,0,9.17,9.17,0,0,1,3.05,1.84,8.41,8.41,0,0,1,2,2.85,9.07,9.07,0,0,1,.74,3.72,7.52,7.52,0,0,1-1.17,4.34,8.93,8.93,0,0,1-2.78,2.69,10.28,10.28,0,0,1,1.67,1.21,8.29,8.29,0,0,1,1.42,1.65,8.82,8.82,0,0,1,1,2.14,8.58,8.58,0,0,1,.39,2.66A9.71,9.71,0,0,1,564.83,122.7Zm-4.36-6.2a5.3,5.3,0,0,0-1.15-1.72,5.73,5.73,0,0,0-1.7-1.17,5.08,5.08,0,0,0-2.11-.44,5.25,5.25,0,0,0-2.14.44,5.39,5.39,0,0,0-1.7,1.17,5.51,5.51,0,0,0-1.12,1.72,5.71,5.71,0,0,0,0,4.27,5.48,5.48,0,0,0,1.12,1.72,5.08,5.08,0,0,0,1.7,1.15,5.47,5.47,0,0,0,2.14.41,5.3,5.3,0,0,0,2.11-.41,5.38,5.38,0,0,0,1.7-1.15,5.28,5.28,0,0,0,1.15-1.72,5.71,5.71,0,0,0,0-4.27ZM559,100.6a4.63,4.63,0,0,0-3.51-1.42A4.55,4.55,0,0,0,552,100.6a5,5,0,0,0-1.33,3.58,4.94,4.94,0,0,0,1.33,3.58,4.63,4.63,0,0,0,3.49,1.38,4.71,4.71,0,0,0,3.51-1.38,4.89,4.89,0,0,0,1.35-3.58A5,5,0,0,0,559,100.6Z"/>
  </g>
  <g>
    <path class="cls-3" d="M393.18,699.17a.54.54,0,0,1,.57.57v6.71a.54.54,0,0,1-.57.57h-1.93a.54.54,0,0,1-.57-.57v-3.92a.3.3,0,0,0-.34-.34h-9.5a.3.3,0,0,0-.34.34v32.12a.3.3,0,0,0,.34.34h3.58a.54.54,0,0,1,.57.57v1.71a.54.54,0,0,1-.57.57H373.33a.54.54,0,0,1-.57-.57v-1.71a.54.54,0,0,1,.57-.57h3.58a.3.3,0,0,0,.34-.34V702.53a.3.3,0,0,0-.34-.34h-9.5a.3.3,0,0,0-.34.34v3.92a.54.54,0,0,1-.57.57h-1.93a.54.54,0,0,1-.57-.57v-6.71a.54.54,0,0,1,.57-.57Z"/>
    <path class="cls-3" d="M405.35,699.17a.54.54,0,0,1,.57.57v14.78H406c1.31-2.67,4.1-4.38,7.85-4.38,6,0,9.38,3.75,9.38,10.35v14.16a.3.3,0,0,0,.34.34h3.13a.54.54,0,0,1,.56.57v1.71a.54.54,0,0,1-.56.57H416.61a.54.54,0,0,1-.57-.57v-1.71a.54.54,0,0,1,.57-.57h3.19a.3.3,0,0,0,.34-.34V721.23c0-5.46-2.33-8.13-7-8.13-4.09,0-7.22,2.84-7.22,7.56v14a.3.3,0,0,0,.34.34h3.19a.54.54,0,0,1,.57.57v1.71a.54.54,0,0,1-.57.57H399.32a.54.54,0,0,1-.57-.57v-1.71a.54.54,0,0,1,.57-.57h3.18a.3.3,0,0,0,.34-.34V702.36a.3.3,0,0,0-.34-.34h-3.18a.54.54,0,0,1-.57-.57v-1.71a.54.54,0,0,1,.57-.57Z"/>
    <path class="cls-3" d="M452,717.19c.57,1.71.8,3.47.8,7.22a.56.56,0,0,1-.63.57H434.45c-.23,0-.34.17-.34.4a14.48,14.48,0,0,0,.57,4.78c1.19,3.52,3.92,5.29,7.67,5.29a9.26,9.26,0,0,0,7.56-3.47.52.52,0,0,1,.8-.11l1.31,1.19a.51.51,0,0,1,.06.8,12,12,0,0,1-9.89,4.55c-5.28,0-8.87-2.5-10.4-7.16a21.75,21.75,0,0,1-.8-7,23.11,23.11,0,0,1,.8-7.05c1.48-4.55,5.17-7.05,10.06-7.05S450.48,712.64,452,717.19Zm-17.34.91a12.6,12.6,0,0,0-.51,3.92.3.3,0,0,0,.34.34h14.84a.3.3,0,0,0,.34-.34,12.73,12.73,0,0,0-.51-3.92c-1.08-3.41-3.75-5.12-7.28-5.12A7,7,0,0,0,434.62,718.1Z"/>
    <path class="cls-3" d="M478.91,702a.54.54,0,0,1,.57.57v7.79a.3.3,0,0,0,.34.34h5.11a.54.54,0,0,1,.57.57V713a.54.54,0,0,1-.57.57h-5.11a.3.3,0,0,0-.34.34v16.54c0,3.64,1.25,4.6,4.43,4.6h1a.54.54,0,0,1,.57.57v1.77a.54.54,0,0,1-.57.57h-1.48c-5.06,0-7.05-2-7.05-7.34V713.9a.3.3,0,0,0-.34-.34h-2.84a.54.54,0,0,1-.57-.57v-1.71a.54.54,0,0,1,.57-.57h2.84a.3.3,0,0,0,.34-.34v-7.79A.54.54,0,0,1,477,702Z"/>
    <path class="cls-3" d="M508.32,710.71c.34.12.51.29.51.63v1.87c0,.34-.17.63-.62.51a16.5,16.5,0,0,0-3.41-.4c-4.09,0-7.22,3-7.22,9.27v12.05a.3.3,0,0,0,.34.34h3.64a.54.54,0,0,1,.57.57v1.71a.54.54,0,0,1-.57.57H491a.54.54,0,0,1-.57-.57v-1.71A.54.54,0,0,1,491,735h3.18a.3.3,0,0,0,.34-.34V713.9a.3.3,0,0,0-.34-.34H491a.54.54,0,0,1-.57-.57v-1.71a.54.54,0,0,1,.57-.57h6a.54.54,0,0,1,.57.57v4h.06a7.75,7.75,0,0,1,7.45-5A10,10,0,0,1,508.32,710.71Z"/>
    <path class="cls-3" d="M537.14,710.71a.54.54,0,0,1,.57.57v23.37a.3.3,0,0,0,.34.34h3.19a.54.54,0,0,1,.57.57v1.71a.54.54,0,0,1-.57.57h-6a.54.54,0,0,1-.57-.57v-3.19h-.06c-1.36,2.73-4.21,4.32-7.79,4.32-6,0-9.27-3.75-9.27-10.29V713.9a.3.3,0,0,0-.34-.34H514a.54.54,0,0,1-.57-.57v-1.71a.54.54,0,0,1,.57-.57h6a.54.54,0,0,1,.57.57v16c0,5.46,2.16,8.13,6.88,8.13,4,0,7.17-2.84,7.17-7.51v-14a.3.3,0,0,0-.34-.34h-3.19a.54.54,0,0,1-.57-.57v-1.71a.54.54,0,0,1,.57-.57Z"/>
    <path class="cls-3" d="M741.65,720.49v14.16a.3.3,0,0,0,.34.34h3.13a.54.54,0,0,1,.56.57v1.71a.54.54,0,0,1-.56.57H735.06a.54.54,0,0,1-.57-.57v-1.71a.54.54,0,0,1,.57-.57h3.19a.3.3,0,0,0,.34-.34V721.23c0-5.46-2.33-8.13-7-8.13-4.09,0-7.22,2.84-7.22,7.56v14a.3.3,0,0,0,.34.34h3.19a.54.54,0,0,1,.57.57v1.71a.54.54,0,0,1-.57.57H717.78a.54.54,0,0,1-.57-.57v-1.71a.54.54,0,0,1,.57-.57H721a.3.3,0,0,0,.34-.34V713.9a.3.3,0,0,0-.34-.34h-3.18a.54.54,0,0,1-.57-.57v-1.71a.54.54,0,0,1,.57-.57h6a.54.54,0,0,1,.57.57v3.24h.06c1.31-2.67,4.1-4.38,7.85-4.38C738.24,710.14,741.65,713.9,741.65,720.49Z"/>
    <path class="cls-3" d="M771.27,699.17a.54.54,0,0,1,.57.57v34.91a.3.3,0,0,0,.34.34h3.19a.54.54,0,0,1,.57.57v1.71a.54.54,0,0,1-.57.57h-6a.54.54,0,0,1-.57-.57V734h-.06c-1.31,2.56-3.69,4.43-8.19,4.43-4.78,0-7.85-2.16-9.27-6.48a30.74,30.74,0,0,1,0-15.29c1.42-4.32,4.38-6.48,9.15-6.48,4.49,0,7,1.82,8.3,4.44h.06V702.36a.3.3,0,0,0-.34-.34h-3.19a.54.54,0,0,1-.57-.57v-1.71a.54.54,0,0,1,.57-.57Zm-17.11,18.71a28,28,0,0,0,0,12.79c1,3.07,3.41,4.78,6.94,4.78s5.91-1.59,6.94-4.78a19.88,19.88,0,0,0,.74-6.37,20.26,20.26,0,0,0-.74-6.42c-1-3.19-3.53-4.78-6.94-4.78S755.18,714.81,754.16,717.88Z"/>
    <path class="cls-3" d="M550.52,702a.54.54,0,0,1,.57.57v7.79a.3.3,0,0,0,.34.34h5.11a.54.54,0,0,1,.57.57V713a.54.54,0,0,1-.57.57h-5.11a.3.3,0,0,0-.34.34v16.54c0,3.64,1.25,4.6,4.43,4.6h1a.54.54,0,0,1,.57.57v1.77a.54.54,0,0,1-.57.57h-1.48c-5.06,0-7.05-2-7.05-7.34V713.9a.3.3,0,0,0-.34-.34h-2.84a.54.54,0,0,1-.57-.57v-1.71a.54.54,0,0,1,.57-.57h2.84a.3.3,0,0,0,.34-.34v-7.79a.54.54,0,0,1,.57-.57Z"/>
    <path class="cls-3" d="M569,699.17a.54.54,0,0,1,.57.57v14.78h.06c1.31-2.67,4.1-4.38,7.85-4.38,6,0,9.38,3.75,9.38,10.35v14.16a.3.3,0,0,0,.34.34h3.13a.54.54,0,0,1,.56.57v1.71a.54.54,0,0,1-.56.57H580.25a.54.54,0,0,1-.57-.57v-1.71a.54.54,0,0,1,.57-.57h3.19a.3.3,0,0,0,.34-.34V721.23c0-5.46-2.33-8.13-7-8.13-4.09,0-7.22,2.84-7.22,7.56v14a.3.3,0,0,0,.34.34h3.19a.54.54,0,0,1,.57.57v1.71a.54.54,0,0,1-.57.57H563a.54.54,0,0,1-.57-.57v-1.71A.54.54,0,0,1,563,735h3.18a.3.3,0,0,0,.34-.34V702.36a.3.3,0,0,0-.34-.34H563a.54.54,0,0,1-.57-.57v-1.71a.54.54,0,0,1,.57-.57Z"/>
    <path class="cls-3" d="M616.5,699.17a.53.53,0,0,1,.57.57v14.84h.06c1.31-2.56,3.7-4.44,8.19-4.44,4.78,0,7.85,2.16,9.27,6.48a30.74,30.74,0,0,1,0,15.29c-1.42,4.32-4.49,6.48-9.27,6.48-4.49,0-6.88-1.88-8.19-4.43h-.06v3.3a.54.54,0,0,1-.57.57h-6a.54.54,0,0,1-.57-.57v-1.71a.54.54,0,0,1,.57-.57h3.18a.3.3,0,0,0,.34-.34V702.36a.3.3,0,0,0-.34-.34h-3.18a.54.54,0,0,1-.57-.57v-1.71a.54.54,0,0,1,.57-.57Zm1.31,18.71a20.12,20.12,0,0,0-.74,6.42,19.74,19.74,0,0,0,.74,6.37c1,3.18,3.52,4.78,6.94,4.78,3.58,0,5.91-1.71,6.94-4.78a28,28,0,0,0,0-12.79c-1-3.07-3.35-4.78-6.94-4.78C621.33,713.1,618.83,714.69,617.8,717.88Z"/>
    <path class="cls-3" d="M662.21,717.19c.57,1.71.8,3.47.8,7.22a.56.56,0,0,1-.63.57H644.71c-.23,0-.34.17-.34.4a14.48,14.48,0,0,0,.57,4.78c1.19,3.52,3.92,5.29,7.67,5.29a9.26,9.26,0,0,0,7.56-3.47.52.52,0,0,1,.8-.11l1.31,1.19a.51.51,0,0,1,.06.8,12,12,0,0,1-9.89,4.55c-5.28,0-8.87-2.5-10.4-7.16a21.75,21.75,0,0,1-.8-7,23.11,23.11,0,0,1,.8-7.05c1.48-4.55,5.17-7.05,10.06-7.05S660.74,712.64,662.21,717.19Zm-17.34.91a12.6,12.6,0,0,0-.51,3.92.3.3,0,0,0,.34.34h14.84a.3.3,0,0,0,.34-.34,12.73,12.73,0,0,0-.51-3.92c-1.08-3.41-3.75-5.12-7.28-5.12A7,7,0,0,0,644.88,718.1Z"/>
    <path class="cls-3" d="M674.31,699.17a.54.54,0,0,1,.57.57v14.78h.06c1.31-2.67,4.1-4.38,7.85-4.38,6,0,9.38,3.75,9.38,10.35v14.16a.3.3,0,0,0,.34.34h3.13a.54.54,0,0,1,.56.57v1.71a.54.54,0,0,1-.56.57H685.57a.54.54,0,0,1-.57-.57v-1.71a.54.54,0,0,1,.57-.57h3.19a.3.3,0,0,0,.34-.34V721.23c0-5.46-2.33-8.13-7-8.13-4.09,0-7.22,2.84-7.22,7.56v14a.3.3,0,0,0,.34.34h3.19a.54.54,0,0,1,.57.57v1.71a.54.54,0,0,1-.57.57H668.29a.54.54,0,0,1-.57-.57v-1.71a.54.54,0,0,1,.57-.57h3.18a.3.3,0,0,0,.34-.34V702.36a.3.3,0,0,0-.34-.34h-3.18a.54.54,0,0,1-.57-.57v-1.71a.54.54,0,0,1,.57-.57Z"/>
    <path class="cls-3" d="M707.73,710.71a.54.54,0,0,1,.57.57v23.37a.3.3,0,0,0,.34.34h3.19a.54.54,0,0,1,.57.57v1.71a.54.54,0,0,1-.57.57H701.71a.54.54,0,0,1-.57-.57v-1.71a.54.54,0,0,1,.57-.57h3.18a.3.3,0,0,0,.34-.34V713.9a.3.3,0,0,0-.34-.34h-3.18a.54.54,0,0,1-.57-.57v-1.71a.54.54,0,0,1,.57-.57Zm.29-11.54a.54.54,0,0,1,.57.57v3.19a.54.54,0,0,1-.57.57h-2.5a.54.54,0,0,1-.57-.57v-3.19a.54.54,0,0,1,.57-.57Z"/>
  </g>
  <g>
    <path class="cls-4" d="M805.41,768.63c0-4.62-.06-8.48,0-12.32,0-1.71-.4-2.54-2.26-3-8.8-2.16-13.84-8.74-13.84-17.75q0-16.55,0-33.1c0-10.72,7.6-18.36,18.34-18.37q46.4,0,92.81,0h182.37c9.6,0,16.51,5.62,18.35,14.92a14.33,14.33,0,0,1,.21,2.75c0,11.42-.05,22.84,0,34.25.07,10.75-9.15,17.72-17.74,17.71q-130-.21-259.9-.13a7,7,0,0,0-5.65,2.35c-3.36,3.61-6.94,7-10.44,10.51C807.13,767,806.52,767.58,805.41,768.63Z"/>
    <g>
      <path class="cls-5" d="M822.23,699.13a.54.54,0,0,1,.57.57v13h.06c1.25-1.93,3.53-3.19,7.06-3.19,4.72,0,7.68,2.22,9.11,6.55a32.63,32.63,0,0,1,0,15.76c-1.42,4.33-4.38,6.55-9.11,6.55-3.53,0-5.81-1.25-7.06-3.19h-.06v2a.54.54,0,0,1-.57.57h-11.1a.54.54,0,0,1-.57-.57v-6.6a.54.54,0,0,1,.57-.57H813a.3.3,0,0,0,.34-.34V707.21a.3.3,0,0,0-.34-.34h-1.88a.54.54,0,0,1-.57-.57v-6.6a.54.54,0,0,1,.57-.57Zm1,20.49a12.06,12.06,0,0,0-.46,4.33,12.23,12.23,0,0,0,.46,4.38,3.58,3.58,0,0,0,6.71,0,13.72,13.72,0,0,0,.46-4.38,13.54,13.54,0,0,0-.46-4.33,3.58,3.58,0,0,0-6.71,0Z"/>
      <path class="cls-5" d="M870.26,710.11a.54.54,0,0,1,.57.57v19.07a.3.3,0,0,0,.34.34h1.88a.54.54,0,0,1,.57.57v6.6a.54.54,0,0,1-.57.57H862a.54.54,0,0,1-.57-.57v-2h-.06c-1.36,1.93-3.76,3.19-7.17,3.19-6.37,0-9-4.1-9-10.24v-10a.3.3,0,0,0-.34-.34h-1.88a.54.54,0,0,1-.57-.57v-6.6a.54.54,0,0,1,.57-.57H854a.54.54,0,0,1,.57.57V726.5c0,2.45,1.14,4,3.36,4s3.41-1.48,3.41-4v-8.31a.3.3,0,0,0-.34-.34h-1.88a.54.54,0,0,1-.57-.57v-6.6a.54.54,0,0,1,.57-.57Z"/>
      <path class="cls-5" d="M900.19,710.11a.54.54,0,0,1,.57.57v6.09a.78.78,0,0,1-.23.63l-13,13v.12h5.24a.3.3,0,0,0,.34-.34v-1.48a.54.54,0,0,1,.57-.57h6.72a.54.54,0,0,1,.57.57v8.54a.54.54,0,0,1-.57.57H877.08a.54.54,0,0,1-.57-.57v-6a.78.78,0,0,1,.23-.63l13.09-13.43V717h-4.66a.3.3,0,0,0-.34.34v1.88a.54.54,0,0,1-.57.57h-6.78a.54.54,0,0,1-.57-.57v-8.54a.54.54,0,0,1,.57-.57Z"/>
      <path class="cls-5" d="M927.89,710.11a.54.54,0,0,1,.57.57v6.09a.78.78,0,0,1-.23.63l-13,13v.12h5.24a.3.3,0,0,0,.34-.34v-1.48a.54.54,0,0,1,.57-.57h6.72a.54.54,0,0,1,.57.57v8.54a.54.54,0,0,1-.57.57H904.78a.54.54,0,0,1-.57-.57v-6a.78.78,0,0,1,.23-.63l13.09-13.43V717h-4.66a.3.3,0,0,0-.34.34v1.88a.54.54,0,0,1-.57.57h-6.78a.54.54,0,0,1-.57-.57v-8.54a.54.54,0,0,1,.57-.57Z"/>
      <path class="cls-5" d="M973.81,710.11a.54.54,0,0,1,.57.57v6.6a.54.54,0,0,1-.57.57H972a.31.31,0,0,0-.34.23l-6.55,19.18a.67.67,0,0,1-.68.57h-6.89a.67.67,0,0,1-.68-.57l-4.16-14.34h-.11l-4.21,14.34a.67.67,0,0,1-.68.57h-6.83a.66.66,0,0,1-.68-.57l-6.61-19.18c-.06-.17-.11-.23-.28-.23h-1.77a.54.54,0,0,1-.57-.57v-6.6a.54.54,0,0,1,.57-.57h12.35a.54.54,0,0,1,.57.57v6.6a.54.54,0,0,1-.57.57h-1.42c-.17,0-.23.12-.17.29l2.39,7.91h.12l4.27-15.37a.75.75,0,0,1,.8-.57h5.63a.71.71,0,0,1,.8.57L960.78,726h.11l2.28-7.91c.06-.17,0-.29-.17-.29h-1.37a.54.54,0,0,1-.57-.57v-6.6a.54.54,0,0,1,.57-.57Z"/>
      <path class="cls-5" d="M1002.2,717.45a25.27,25.27,0,0,1,0,13c-1.71,5.29-6.43,8-12.52,8s-10.82-2.73-12.52-8a25.27,25.27,0,0,1,0-13c1.71-5.29,6.43-8,12.52-8S1000.5,712.16,1002.2,717.45Zm-15.93,2.16a13.5,13.5,0,0,0-.4,4.38,13.11,13.11,0,0,0,.4,4.33,3.66,3.66,0,0,0,6.83,0,13.11,13.11,0,0,0,.4-4.33,13.5,13.5,0,0,0-.4-4.38,3.66,3.66,0,0,0-6.83,0Z"/>
      <path class="cls-5" d="M1026.61,710.06c.4.11.57.23.57.68v8.14c0,.45-.4.57-.8.45a13,13,0,0,0-3.24-.51c-3.07,0-5,1.76-5,5.4v5.52a.3.3,0,0,0,.34.34h2.1a.54.54,0,0,1,.57.57v6.6a.54.54,0,0,1-.57.57h-14.11a.54.54,0,0,1-.57-.57v-6.6a.54.54,0,0,1,.57-.57h1.88a.3.3,0,0,0,.34-.34V718.19a.3.3,0,0,0-.34-.34h-1.88a.54.54,0,0,1-.57-.57v-6.6a.54.54,0,0,1,.57-.57h11.1a.54.54,0,0,1,.57.57v2.62h.06a6.72,6.72,0,0,1,6.15-3.47A12,12,0,0,1,1026.61,710.06Z"/>
      <path class="cls-5" d="M1055.63,699.13a.54.54,0,0,1,.57.57v30.05a.3.3,0,0,0,.34.34h1.88a.54.54,0,0,1,.57.57v6.6a.54.54,0,0,1-.57.57h-11.09a.54.54,0,0,1-.57-.57v-2h-.06c-1.19,1.93-3.59,3.19-7.11,3.19-4.67,0-7.68-2.22-9.05-6.55a32.63,32.63,0,0,1,0-15.76c1.37-4.33,4.38-6.55,9.05-6.55,3.53,0,5.92,1.25,7.11,3.19h.06v-5.52a.3.3,0,0,0-.34-.34h-1.88a.54.54,0,0,1-.57-.57v-6.6a.54.54,0,0,1,.57-.57Zm-16.1,20.49a14.12,14.12,0,0,0-.4,4.33,14.32,14.32,0,0,0,.4,4.38,3.28,3.28,0,0,0,3.42,2.33,3.24,3.24,0,0,0,3.41-2.33,14.32,14.32,0,0,0,.4-4.38,14.12,14.12,0,0,0-.4-4.33,3.24,3.24,0,0,0-3.41-2.33A3.28,3.28,0,0,0,1039.52,719.62Z"/>
    </g>
    <rect class="cls-5" x="1063.12" y="742.7" width="26.02" height="2.4"/>
  </g>
  <g>
    <g>
      <path class="cls-6" d="M377.83,800.56a4.86,4.86,0,0,1-1.36,1.71,6.1,6.1,0,0,1-2.08,1.06,9.09,9.09,0,0,1-2.64.36,10.87,10.87,0,0,1-3.61-.54,7.41,7.41,0,0,1-2.84-1.89l1.85-1.84a5.41,5.41,0,0,0,2.13,1.39,8,8,0,0,0,2.53.37,4.58,4.58,0,0,0,2.78-.74,2.8,2.8,0,0,0,.27-4,2.38,2.38,0,0,0-.77-.49,6.81,6.81,0,0,0-1.23-.28l-2.16-.31a6.12,6.12,0,0,1-3.46-1.48,4.62,4.62,0,0,1-1.33-3.52,5.54,5.54,0,0,1,.42-2.19,5,5,0,0,1,1.2-1.72,5.27,5.27,0,0,1,1.91-1.11,7.73,7.73,0,0,1,2.56-.39,9,9,0,0,1,3.15.49,7.35,7.35,0,0,1,2.51,1.61l-1.77,1.76a4.5,4.5,0,0,0-1.83-1.13,7.38,7.38,0,0,0-2.14-.3,3.47,3.47,0,0,0-2.47.82,2.72,2.72,0,0,0-.86,2.06,2.59,2.59,0,0,0,.17.95,2.06,2.06,0,0,0,.52.76,3.87,3.87,0,0,0,2,.85l2.08.31a9.33,9.33,0,0,1,2.05.53,5,5,0,0,1,1.36.84,4.19,4.19,0,0,1,1.11,1.63,5.94,5.94,0,0,1,.37,2.15A5.17,5.17,0,0,1,377.83,800.56Z"/>
      <path class="cls-6" d="M385.21,803.54a3.74,3.74,0,0,1-1.59-.31,3.25,3.25,0,0,1-1.1-.82,3.39,3.39,0,0,1-.65-1.17,4.27,4.27,0,0,1-.22-1.36v-7.23h-1.49v-2h1.49v-4h2.61v4h2.51v2h-2.51v7.1a1.66,1.66,0,0,0,.35,1.13,1.35,1.35,0,0,0,1.09.4h1.07v2.25Z"/>
      <path class="cls-6" d="M397.56,803.54v-1.32a4.15,4.15,0,0,1-1.57,1.11,5.24,5.24,0,0,1-3.69.05,4.09,4.09,0,0,1-1.4-.88,4,4,0,0,1-1-1.67,6.94,6.94,0,0,1-.28-2V790.4h2.61v8a2.9,2.9,0,0,0,.76,2.23,2.61,2.61,0,0,0,1.86.7,3.26,3.26,0,0,0,1-.17,2.15,2.15,0,0,0,.85-.53,2.59,2.59,0,0,0,.58-.92,3.54,3.54,0,0,0,.22-1.31v-8h2.61v13.13Z"/>
      <path class="cls-6" d="M411.34,803.54v-1.4a4,4,0,0,1-1.55,1.23,5.54,5.54,0,0,1-3.69,0,3.75,3.75,0,0,1-1.37-.85,3.87,3.87,0,0,1-.78-1.14,6.41,6.41,0,0,1-.45-1.38,9.51,9.51,0,0,1-.19-1.52c0-.52,0-1,0-1.53s0-1,0-1.53a9.25,9.25,0,0,1,.19-1.5,6.6,6.6,0,0,1,.45-1.37,4,4,0,0,1,.78-1.14,3.82,3.82,0,0,1,1.36-.85,5,5,0,0,1,1.79-.31,5.26,5.26,0,0,1,1.87.31,3.82,3.82,0,0,1,1.53,1.17v-6.63h2.61v18.44Zm-.14-8.25a4.31,4.31,0,0,0-.37-1.38A2.23,2.23,0,0,0,410,793a3,3,0,0,0-2.83,0,2.38,2.38,0,0,0-.82.95,4.21,4.21,0,0,0-.38,1.38,15.33,15.33,0,0,0,0,3.34,4.33,4.33,0,0,0,.38,1.4,2.34,2.34,0,0,0,.82,1,3,3,0,0,0,2.83,0,2.19,2.19,0,0,0,.82-1,4.44,4.44,0,0,0,.37-1.4,16,16,0,0,0,0-3.34Z"/>
      <path class="cls-6" d="M419.61,797.73a4,4,0,0,0,.85,2.69,3.07,3.07,0,0,0,2.46,1,4.12,4.12,0,0,0,1.78-.33,5,5,0,0,0,1.37-1l1.66,1.58a9.17,9.17,0,0,1-1,.89,5.54,5.54,0,0,1-2.33,1,8.46,8.46,0,0,1-1.53.13,7.24,7.24,0,0,1-2.29-.35,4.59,4.59,0,0,1-1.85-1.14,5.61,5.61,0,0,1-1.26-2.09A9.4,9.4,0,0,1,417,797a7.36,7.36,0,0,1,1.51-5,5.06,5.06,0,0,1,4-1.75,5.52,5.52,0,0,1,2.33.47,4.87,4.87,0,0,1,1.73,1.29,5.69,5.69,0,0,1,1.07,2,8.43,8.43,0,0,1,.37,2.56v1.17Zm5.75-2.81a3.37,3.37,0,0,0-.27-.82,2.64,2.64,0,0,0-1-1.2,2.76,2.76,0,0,0-1.59-.45,2.82,2.82,0,0,0-1.6.45,2.61,2.61,0,0,0-1,1.2,2.84,2.84,0,0,0-.25.82c0,.25-.06.57-.08,1h5.84A8.46,8.46,0,0,0,425.36,794.92Z"/>
      <path class="cls-6" d="M439,803.54v-8a2.9,2.9,0,0,0-.76-2.23,2.63,2.63,0,0,0-1.86-.7,2.75,2.75,0,0,0-1.89.71,2.82,2.82,0,0,0-.8,2.21v8h-2.61V790.4h2.56v1.32a4.16,4.16,0,0,1,1.57-1.12,5.09,5.09,0,0,1,1.88-.36,5,5,0,0,1,1.81.31,4.15,4.15,0,0,1,1.4.88,4.06,4.06,0,0,1,1,1.67,6.82,6.82,0,0,1,.28,2v8.39Z"/>
      <path class="cls-6" d="M449.12,803.54a3.74,3.74,0,0,1-1.59-.31,3.25,3.25,0,0,1-1.1-.82,3.39,3.39,0,0,1-.65-1.17,4.27,4.27,0,0,1-.22-1.36v-7.23h-1.49v-2h1.49v-4h2.61v4h2.51v2h-2.51v7.1a1.66,1.66,0,0,0,.35,1.13,1.35,1.35,0,0,0,1.09.4h1.07v2.25Z"/>
      <path class="cls-6" d="M462.82,801.33a3.79,3.79,0,0,1-1.13,1.31,4.89,4.89,0,0,1-1.72.79,8.62,8.62,0,0,1-2.15.26,11,11,0,0,1-2.95-.37,5.75,5.75,0,0,1-2.51-1.52l1.72-1.74a3.89,3.89,0,0,0,1.78,1.1,7.3,7.3,0,0,0,2,.27,4.22,4.22,0,0,0,2-.44,1.6,1.6,0,0,0,.42-2.45,2.1,2.1,0,0,0-1.34-.48l-2.08-.18a4.87,4.87,0,0,1-2.84-1,3.27,3.27,0,0,1-1-2.6,3.67,3.67,0,0,1,.39-1.71,3.61,3.61,0,0,1,1-1.26,4.85,4.85,0,0,1,1.55-.78,6.4,6.4,0,0,1,1.91-.27,10.24,10.24,0,0,1,2.69.34,5.18,5.18,0,0,1,2.13,1.14l-1.64,1.68a3.65,3.65,0,0,0-1.45-.74,6.79,6.79,0,0,0-1.75-.22,2.81,2.81,0,0,0-1.77.47,1.48,1.48,0,0,0-.59,1.22,1.42,1.42,0,0,0,.37,1,2.2,2.2,0,0,0,1.42.51l2.05.18a4.81,4.81,0,0,1,2.86,1,3.34,3.34,0,0,1,1,2.65A3.81,3.81,0,0,1,462.82,801.33Z"/>
      <path class="cls-6" d="M465.95,790v-4.95h2.62V790Z"/>
    </g>
    <g>
      <path class="cls-6" d="M477.81,803.54V785.09h2.78v18.44Z"/>
      <path class="cls-6" d="M492.65,803.54v-8a2.9,2.9,0,0,0-.76-2.23,2.67,2.67,0,0,0-1.87-.7,2.78,2.78,0,0,0-1.91.71,2.82,2.82,0,0,0-.8,2.21v8h-2.63V790.4h2.58v1.32a4.16,4.16,0,0,1,1.58-1.12,5.15,5.15,0,0,1,1.89-.36,5,5,0,0,1,1.82.31,4.15,4.15,0,0,1,1.4.88,4,4,0,0,1,1,1.67,6.82,6.82,0,0,1,.28,2v8.39Z"/>
      <path class="cls-6" d="M502,792.66v10.88h-2.63V792.66h-1.49v-2h1.49v-2a4.39,4.39,0,0,1,.22-1.36,3.34,3.34,0,0,1,.66-1.17,3.22,3.22,0,0,1,1.11-.82,3.72,3.72,0,0,1,1.6-.31h1.65v2.25h-1.16a1.37,1.37,0,0,0-1.09.4,1.65,1.65,0,0,0-.35,1.13v1.89h2.6v2Z"/>
      <path class="cls-6" d="M516.53,799.9a5,5,0,0,1-1.24,2.24,5.09,5.09,0,0,1-1.61,1.11,5.51,5.51,0,0,1-2.31.44,5.41,5.41,0,0,1-2.29-.44,5.13,5.13,0,0,1-1.6-1.11,5,5,0,0,1-1.24-2.24,12.37,12.37,0,0,1-.31-2.94,12.21,12.21,0,0,1,.31-2.91,5,5,0,0,1,1.24-2.24,5.2,5.2,0,0,1,1.6-1.11,5.41,5.41,0,0,1,2.29-.44,5.51,5.51,0,0,1,2.31.44,5.16,5.16,0,0,1,1.61,1.11,5,5,0,0,1,1.24,2.24,12.21,12.21,0,0,1,.31,2.91A12.37,12.37,0,0,1,516.53,799.9Zm-2.47-5a2.77,2.77,0,0,0-.75-1.55,2.6,2.6,0,0,0-1.93-.75,2.57,2.57,0,0,0-1.9.75,2.74,2.74,0,0,0-.75,1.55,13.57,13.57,0,0,0,0,4.09,2.74,2.74,0,0,0,.75,1.55,2.58,2.58,0,0,0,1.9.78,2.61,2.61,0,0,0,1.93-.78,2.77,2.77,0,0,0,.75-1.55,13.57,13.57,0,0,0,0-4.09Z"/>
      <path class="cls-6" d="M527.2,793.49a3.47,3.47,0,0,0-.86-.66,2.42,2.42,0,0,0-1.09-.22,2.45,2.45,0,0,0-1.84.79,3,3,0,0,0-.76,2.16v8H520V790.4h2.58v1.43a3.71,3.71,0,0,1,1.44-1.14,4.68,4.68,0,0,1,2-.44,4.74,4.74,0,0,1,1.7.29,4,4,0,0,1,1.42,1Z"/>
      <path class="cls-6" d="M546.85,803.54v-8a2.89,2.89,0,0,0-.76-2.23,2.66,2.66,0,0,0-1.86-.7,3.16,3.16,0,0,0-1,.17,2.36,2.36,0,0,0-.86.52,2.46,2.46,0,0,0-.6.88,3.26,3.26,0,0,0-.22,1.23v8.13h-2.62v-8a2.9,2.9,0,0,0-.76-2.23,2.67,2.67,0,0,0-1.87-.7,2.78,2.78,0,0,0-1.91.71,2.82,2.82,0,0,0-.8,2.21v8h-2.63V790.4h2.58v1.32a4.39,4.39,0,0,1,1.58-1.1,4.93,4.93,0,0,1,1.89-.38,4.12,4.12,0,0,1,3.71,1.92,5.05,5.05,0,0,1,4.1-1.92,5.38,5.38,0,0,1,1.86.31,4.08,4.08,0,0,1,1.44.88,4.41,4.41,0,0,1,1.07,1.67,6.12,6.12,0,0,1,.32,2v8.39Z"/>
      <path class="cls-6" d="M560.17,803.54v-1.19a4.49,4.49,0,0,1-1.49,1,5.4,5.4,0,0,1-2,.31,6.25,6.25,0,0,1-2.08-.3,3.76,3.76,0,0,1-1.43-.89,3.93,3.93,0,0,1-1-2.82,3.6,3.6,0,0,1,1.12-2.72,4.77,4.77,0,0,1,3.39-1.06h3.45V795a2.41,2.41,0,0,0-.66-1.85,3.21,3.21,0,0,0-2.2-.61,4.11,4.11,0,0,0-1.7.29,3.17,3.17,0,0,0-1.16,1l-1.73-1.63a5,5,0,0,1,2-1.49,7.76,7.76,0,0,1,2.69-.4q5.39,0,5.38,4.51v8.78Zm-.05-5.8h-3.07a2.67,2.67,0,0,0-1.75.49,1.94,1.94,0,0,0,0,2.78,2.83,2.83,0,0,0,1.81.48,6.81,6.81,0,0,0,1.34-.12,2.14,2.14,0,0,0,1.11-.64,2.69,2.69,0,0,0,.56-1.94Z"/>
      <path class="cls-6" d="M570.3,803.54a3.8,3.8,0,0,1-1.6-.31,3.27,3.27,0,0,1-1.11-.82,3.34,3.34,0,0,1-.66-1.17,4.27,4.27,0,0,1-.22-1.36v-7.23h-1.5v-2h1.5v-4h2.62v4h2.53v2h-2.53v7.1a1.64,1.64,0,0,0,.35,1.13,1.36,1.36,0,0,0,1.09.4h1.08v2.25Z"/>
      <path class="cls-6" d="M574.75,787.81V785h2.78v2.8Zm.08,15.72V790.4h2.63v13.13Z"/>
      <path class="cls-6" d="M591.22,799.9a5,5,0,0,1-1.24,2.24,5.09,5.09,0,0,1-1.61,1.11,5.51,5.51,0,0,1-2.31.44,5.41,5.41,0,0,1-2.29-.44,5.13,5.13,0,0,1-1.6-1.11,5,5,0,0,1-1.24-2.24,12.37,12.37,0,0,1-.31-2.94,12.21,12.21,0,0,1,.31-2.91,5,5,0,0,1,1.24-2.24,5.2,5.2,0,0,1,1.6-1.11,5.41,5.41,0,0,1,2.29-.44,5.51,5.51,0,0,1,2.31.44A5.16,5.16,0,0,1,590,791.8a5,5,0,0,1,1.24,2.24,12.21,12.21,0,0,1,.31,2.91A12.37,12.37,0,0,1,591.22,799.9Zm-2.47-5a2.77,2.77,0,0,0-.75-1.55,2.6,2.6,0,0,0-1.93-.75,2.57,2.57,0,0,0-1.9.75,2.74,2.74,0,0,0-.75,1.55,13.57,13.57,0,0,0,0,4.09,2.74,2.74,0,0,0,.75,1.55,2.58,2.58,0,0,0,1.9.78,2.61,2.61,0,0,0,1.93-.78,2.77,2.77,0,0,0,.75-1.55,13.57,13.57,0,0,0,0-4.09Z"/>
      <path class="cls-6" d="M602.65,803.54v-8a2.9,2.9,0,0,0-.76-2.23,2.67,2.67,0,0,0-1.87-.7,2.78,2.78,0,0,0-1.91.71,2.82,2.82,0,0,0-.8,2.21v8h-2.63V790.4h2.58v1.32a4.16,4.16,0,0,1,1.58-1.12,5.15,5.15,0,0,1,1.89-.36,5,5,0,0,1,1.82.31,4.15,4.15,0,0,1,1.4.88,4,4,0,0,1,1,1.67,6.82,6.82,0,0,1,.28,2v8.39Z"/>
    </g>
    <g>
      <path class="cls-6" d="M621.05,787.61v15.93h-2.79V787.61H613.2v-2.51h12.92v2.51Z"/>
      <path class="cls-6" d="M628.75,797.73a4,4,0,0,0,.85,2.69,3.11,3.11,0,0,0,2.48,1,4.2,4.2,0,0,0,1.8-.33,5,5,0,0,0,1.38-1l1.68,1.58a9.24,9.24,0,0,1-1,.89,5.67,5.67,0,0,1-1.09.64,5.8,5.8,0,0,1-1.26.39,8.6,8.6,0,0,1-1.54.13,7.34,7.34,0,0,1-2.31-.35,4.64,4.64,0,0,1-1.87-1.14,5.57,5.57,0,0,1-1.27-2.09,9.4,9.4,0,0,1-.47-3.16,7.3,7.3,0,0,1,1.53-5,5.11,5.11,0,0,1,4.06-1.75,5.6,5.6,0,0,1,2.35.47,5,5,0,0,1,1.75,1.29,5.71,5.71,0,0,1,1.09,2,8.43,8.43,0,0,1,.37,2.56v1.17Zm5.8-2.81a3.37,3.37,0,0,0-.27-.82,2.65,2.65,0,0,0-1-1.2,2.8,2.8,0,0,0-1.6-.45,2.85,2.85,0,0,0-1.61.45,2.6,2.6,0,0,0-1,1.2,2.74,2.74,0,0,0-.26.82c0,.25-.06.57-.08,1h5.89A7.64,7.64,0,0,0,634.55,794.92Z"/>
      <path class="cls-6" d="M647.88,803.25a5.9,5.9,0,0,1-2.38.44,6.53,6.53,0,0,1-2.16-.36,5,5,0,0,1-1.86-1.17,6,6,0,0,1-1.32-2.09,9.9,9.9,0,0,1,0-6.24,5.89,5.89,0,0,1,1.32-2.07,5.06,5.06,0,0,1,1.86-1.15,6.63,6.63,0,0,1,2.16-.36,6,6,0,0,1,2.38.43,5.84,5.84,0,0,1,1.94,1.41L648,793.85a4.43,4.43,0,0,0-1.18-1,3.15,3.15,0,0,0-3.76.88,3.08,3.08,0,0,0-.61,1.28,8.85,8.85,0,0,0-.17,1.9,9,9,0,0,0,.17,1.92,3.08,3.08,0,0,0,.61,1.3,2.87,2.87,0,0,0,2.43,1.17,2.91,2.91,0,0,0,1.33-.28,4.43,4.43,0,0,0,1.18-1l1.81,1.73A6,6,0,0,1,647.88,803.25Z"/>
      <path class="cls-6" d="M660.4,803.54v-8.06a2.8,2.8,0,0,0-.76-2.19,2.89,2.89,0,0,0-3.76,0,2.79,2.79,0,0,0-.78,2.18v8.06h-2.64V785.09h2.64v6.63a4.26,4.26,0,0,1,1.54-1.12,4.79,4.79,0,0,1,1.85-.36,5.1,5.1,0,0,1,1.94.35,3.92,3.92,0,0,1,1.44,1,4.14,4.14,0,0,1,.88,1.53,6.15,6.15,0,0,1,.3,2v8.47Z"/>
      <path class="cls-6" d="M674.69,803.54v-8a2.89,2.89,0,0,0-.76-2.23,2.68,2.68,0,0,0-1.87-.7,2.61,2.61,0,0,0-2.71,2.93v8H666.7V790.4h2.58v1.32a4.18,4.18,0,0,1,1.59-1.12,5.17,5.17,0,0,1,1.9-.36,5.07,5.07,0,0,1,1.82.31,4.13,4.13,0,0,1,1.41.88,4,4,0,0,1,1,1.67,6.82,6.82,0,0,1,.29,2v8.39Z"/>
      <path class="cls-6" d="M691,799.9a5,5,0,0,1-1.24,2.24,5.11,5.11,0,0,1-1.61,1.11,5.56,5.56,0,0,1-2.31.44,5.45,5.45,0,0,1-2.3-.44,5.15,5.15,0,0,1-1.6-1.11,5,5,0,0,1-1.24-2.24,12.37,12.37,0,0,1-.31-2.94,12.21,12.21,0,0,1,.31-2.91,5,5,0,0,1,1.24-2.24,5.21,5.21,0,0,1,1.6-1.11,5.45,5.45,0,0,1,2.3-.44,5.56,5.56,0,0,1,2.31.44,5.18,5.18,0,0,1,1.61,1.11A5,5,0,0,1,691,794a12.21,12.21,0,0,1,.31,2.91A12.37,12.37,0,0,1,691,799.9Zm-2.48-5a2.77,2.77,0,0,0-.75-1.55,2.63,2.63,0,0,0-1.94-.75,2.59,2.59,0,0,0-1.91.75,2.77,2.77,0,0,0-.75,1.55,13.57,13.57,0,0,0,0,4.09,2.77,2.77,0,0,0,.75,1.55,2.6,2.6,0,0,0,1.91.78,2.63,2.63,0,0,0,1.94-.78,2.77,2.77,0,0,0,.75-1.55,13.57,13.57,0,0,0,0-4.09Z"/>
      <path class="cls-6" d="M698,803.54a4,4,0,0,1-1.61-.3,3.17,3.17,0,0,1-1.13-.79,3.08,3.08,0,0,1-.64-1.15,4.58,4.58,0,0,1-.21-1.39V785.09H697v14.66a1.83,1.83,0,0,0,.31,1.14,1.36,1.36,0,0,0,1.11.39h1.16v2.25Z"/>
      <path class="cls-6" d="M711.61,799.9a5,5,0,0,1-1.24,2.24,5.11,5.11,0,0,1-1.61,1.11,5.56,5.56,0,0,1-2.31.44,5.45,5.45,0,0,1-2.3-.44,5.15,5.15,0,0,1-1.6-1.11,5,5,0,0,1-1.24-2.24A12.37,12.37,0,0,1,701,797a12.21,12.21,0,0,1,.31-2.91,5,5,0,0,1,1.24-2.24,5.21,5.21,0,0,1,1.6-1.11,5.45,5.45,0,0,1,2.3-.44,5.56,5.56,0,0,1,2.31.44,5.18,5.18,0,0,1,1.61,1.11,5,5,0,0,1,1.24,2.24,12.21,12.21,0,0,1,.31,2.91A12.37,12.37,0,0,1,711.61,799.9Zm-2.48-5a2.77,2.77,0,0,0-.75-1.55,2.63,2.63,0,0,0-1.94-.75,2.59,2.59,0,0,0-1.91.75,2.77,2.77,0,0,0-.75,1.55,13.57,13.57,0,0,0,0,4.09,2.77,2.77,0,0,0,.75,1.55,2.6,2.6,0,0,0,1.91.78,2.63,2.63,0,0,0,1.94-.78,2.77,2.77,0,0,0,.75-1.55,13.57,13.57,0,0,0,0-4.09Z"/>
      <path class="cls-6" d="M724.71,805.69a5,5,0,0,1-2.87,2.9,6.22,6.22,0,0,1-2.35.41,7.36,7.36,0,0,1-2.54-.39,6.3,6.3,0,0,1-2.08-1.35l1.68-1.68a4.67,4.67,0,0,0,1.24.88,3.84,3.84,0,0,0,1.6.29,3.35,3.35,0,0,0,1.41-.27,2.68,2.68,0,0,0,1-.74,2.93,2.93,0,0,0,.54-1.06,4.63,4.63,0,0,0,.17-1.26v-1.68a3.9,3.9,0,0,1-1.55,1.17,5,5,0,0,1-1.83.32,4.88,4.88,0,0,1-1.78-.31,3.8,3.8,0,0,1-1.34-.85,4.36,4.36,0,0,1-1.22-2.31,17.89,17.89,0,0,1,0-6.06,4.36,4.36,0,0,1,1.22-2.31,4.25,4.25,0,0,1,3.15-1.14,5,5,0,0,1,1.87.33,4,4,0,0,1,1.57,1.23v-1.4h2.56v13.05A6.18,6.18,0,0,1,724.71,805.69Zm-2.32-10.47a4,4,0,0,0-.36-1.32,2.33,2.33,0,0,0-.82-.94,2.51,2.51,0,0,0-1.41-.35,2.57,2.57,0,0,0-1.44.35,2.21,2.21,0,0,0-.8.94,4.32,4.32,0,0,0-.36,1.32,12.66,12.66,0,0,0,0,3,4.31,4.31,0,0,0,.36,1.33,2.2,2.2,0,0,0,.8.93,2.57,2.57,0,0,0,1.44.35,2.51,2.51,0,0,0,1.41-.35,2.32,2.32,0,0,0,.82-.93,4,4,0,0,0,.36-1.33,15.31,15.31,0,0,0,0-3Z"/>
      <path class="cls-6" d="M733,806.15a4.2,4.2,0,0,1-1,1.63,2.88,2.88,0,0,1-1.24.75,5,5,0,0,1-1.45.21H728.3v-2.35H729a2,2,0,0,0,1.21-.3,2.41,2.41,0,0,0,.67-1.11l.72-2L727,790.4h2.79l3.13,9.25L736,790.4h2.82Z"/>
    </g>
    <g>
      <path class="cls-6" d="M758.45,800.45a6.16,6.16,0,0,1-1.47,1.79,6,6,0,0,1-2,1.09,7.58,7.58,0,0,1-2.37.36,7,7,0,0,1-2.7-.51,6.78,6.78,0,0,1-2.2-1.46,5.22,5.22,0,0,1-1-1.42,6.52,6.52,0,0,1-.54-1.63,11.46,11.46,0,0,1-.19-2q0-1.08,0-2.4t0-2.4a11.46,11.46,0,0,1,.19-2,6.52,6.52,0,0,1,.54-1.63,5.22,5.22,0,0,1,1-1.42,6.78,6.78,0,0,1,2.2-1.46,7,7,0,0,1,2.7-.51,6.37,6.37,0,0,1,6.65,5.67h-2.88a4.53,4.53,0,0,0-1.27-2.28,3.5,3.5,0,0,0-2.5-.88,3.92,3.92,0,0,0-1.54.3,3.39,3.39,0,0,0-1.77,1.61,3.7,3.7,0,0,0-.34,1.06,12.55,12.55,0,0,0-.17,1.57c0,.62-.05,1.4-.05,2.33s0,1.71.05,2.33a12.55,12.55,0,0,0,.17,1.57,3.7,3.7,0,0,0,.34,1.06,3.39,3.39,0,0,0,1.77,1.61,3.92,3.92,0,0,0,1.54.3,3.54,3.54,0,0,0,2.51-.88,4.5,4.5,0,0,0,1.28-2.28h2.85A7.57,7.57,0,0,1,758.45,800.45Z"/>
      <path class="cls-6" d="M772.46,799.9a5,5,0,0,1-1.26,2.24,5.18,5.18,0,0,1-1.64,1.11,5.67,5.67,0,0,1-2.34.44,5.6,5.6,0,0,1-2.33-.44,5.24,5.24,0,0,1-1.62-1.11A5,5,0,0,1,762,799.9a12.36,12.36,0,0,1-.31-2.94A12.2,12.2,0,0,1,762,794a4.94,4.94,0,0,1,1.26-2.24,5.31,5.31,0,0,1,1.62-1.11,5.6,5.6,0,0,1,2.33-.44,5.67,5.67,0,0,1,2.34.44,5.25,5.25,0,0,1,1.64,1.11,4.94,4.94,0,0,1,1.26,2.24,12,12,0,0,1,.31,2.91A12.16,12.16,0,0,1,772.46,799.9Zm-2.51-5a2.73,2.73,0,0,0-.76-1.55,2.67,2.67,0,0,0-2-.75,2.64,2.64,0,0,0-1.94.75,2.76,2.76,0,0,0-.76,1.55,13.57,13.57,0,0,0,0,4.09,2.76,2.76,0,0,0,.76,1.55,2.65,2.65,0,0,0,1.94.78,2.68,2.68,0,0,0,2-.78A2.73,2.73,0,0,0,770,799a13.57,13.57,0,0,0,0-4.09Z"/>
      <path class="cls-6" d="M784.09,803.54v-8a2.86,2.86,0,0,0-.77-2.23,2.72,2.72,0,0,0-1.9-.7,2.84,2.84,0,0,0-1.94.71,2.8,2.8,0,0,0-.81,2.21v8H776V790.4h2.62v1.32a4.24,4.24,0,0,1,1.61-1.12,5.32,5.32,0,0,1,1.92-.36,5.21,5.21,0,0,1,1.85.31,4.22,4.22,0,0,1,1.43.88,4,4,0,0,1,1,1.67,6.69,6.69,0,0,1,.29,2v8.39Z"/>
      <path class="cls-6" d="M793.56,792.66v10.88H790.9V792.66h-1.52v-2h1.52v-2a4.17,4.17,0,0,1,.22-1.36,3.35,3.35,0,0,1,.66-1.17,3.3,3.3,0,0,1,1.13-.82,3.85,3.85,0,0,1,1.63-.31h1.67v2.25H795a1.41,1.41,0,0,0-1.11.4,1.65,1.65,0,0,0-.35,1.13v1.89h2.64v2Z"/>
      <path class="cls-6" d="M800.21,797.73a3.94,3.94,0,0,0,.86,2.69,3.16,3.16,0,0,0,2.51,1,4.28,4.28,0,0,0,1.82-.33,5.08,5.08,0,0,0,1.4-1l1.7,1.58a9.31,9.31,0,0,1-1,.89,5.77,5.77,0,0,1-1.1.64,6,6,0,0,1-1.28.39,8.78,8.78,0,0,1-1.55.13,7.57,7.57,0,0,1-2.35-.35,4.73,4.73,0,0,1-1.89-1.14,5.59,5.59,0,0,1-1.28-2.09,9.19,9.19,0,0,1-.48-3.16,7.25,7.25,0,0,1,1.54-5,5.22,5.22,0,0,1,4.11-1.75,5.75,5.75,0,0,1,2.38.47,4.94,4.94,0,0,1,1.77,1.29,5.68,5.68,0,0,1,1.1,2,8.31,8.31,0,0,1,.38,2.56v1.17Zm5.87-2.81a3.23,3.23,0,0,0-.27-.82,2.63,2.63,0,0,0-1-1.2,2.86,2.86,0,0,0-1.62-.45,2.91,2.91,0,0,0-1.63.45,2.61,2.61,0,0,0-1,1.2,2.88,2.88,0,0,0-.26.82c0,.25-.06.57-.08,1h6A7.54,7.54,0,0,0,806.09,794.92Z"/>
      <path class="cls-6" d="M819.24,793.49a3.6,3.6,0,0,0-.88-.66,2.48,2.48,0,0,0-1.11-.22,2.51,2.51,0,0,0-1.87.79,3,3,0,0,0-.77,2.16v8h-2.67V790.4h2.62v1.43a3.73,3.73,0,0,1,1.46-1.14,4.81,4.81,0,0,1,2.07-.44,4.89,4.89,0,0,1,1.73.29,4.13,4.13,0,0,1,1.44,1Z"/>
      <path class="cls-6" d="M824.19,797.73a3.94,3.94,0,0,0,.86,2.69,3.16,3.16,0,0,0,2.51,1,4.28,4.28,0,0,0,1.82-.33,5.08,5.08,0,0,0,1.4-1l1.7,1.58a9.31,9.31,0,0,1-1,.89,5.77,5.77,0,0,1-1.1.64,6,6,0,0,1-1.28.39,8.78,8.78,0,0,1-1.55.13,7.57,7.57,0,0,1-2.35-.35,4.73,4.73,0,0,1-1.89-1.14,5.59,5.59,0,0,1-1.28-2.09,9.19,9.19,0,0,1-.48-3.16,7.25,7.25,0,0,1,1.54-5,5.22,5.22,0,0,1,4.11-1.75,5.75,5.75,0,0,1,2.38.47,4.94,4.94,0,0,1,1.77,1.29,5.68,5.68,0,0,1,1.1,2,8.31,8.31,0,0,1,.38,2.56v1.17Zm5.87-2.81a3.23,3.23,0,0,0-.27-.82,2.63,2.63,0,0,0-1-1.2,2.86,2.86,0,0,0-1.62-.45,2.91,2.91,0,0,0-1.63.45,2.61,2.61,0,0,0-1,1.2,2.88,2.88,0,0,0-.26.82c0,.25-.06.57-.08,1h6A7.54,7.54,0,0,0,830.06,794.92Z"/>
      <path class="cls-6" d="M844,803.54v-8a2.86,2.86,0,0,0-.77-2.23,2.72,2.72,0,0,0-1.9-.7,2.84,2.84,0,0,0-1.94.71,2.8,2.8,0,0,0-.81,2.21v8h-2.67V790.4h2.62v1.32a4.24,4.24,0,0,1,1.61-1.12,5.32,5.32,0,0,1,1.92-.36,5.21,5.21,0,0,1,1.85.31,4.22,4.22,0,0,1,1.43.88,4,4,0,0,1,1,1.67,6.69,6.69,0,0,1,.29,2v8.39Z"/>
      <path class="cls-6" d="M858,803.25a6,6,0,0,1-2.41.44,6.69,6.69,0,0,1-2.19-.36,5,5,0,0,1-1.88-1.17,6,6,0,0,1-1.34-2.09,9.83,9.83,0,0,1,0-6.24,5.87,5.87,0,0,1,1.34-2.07,5.09,5.09,0,0,1,1.88-1.15,6.8,6.8,0,0,1,2.19-.36,6.18,6.18,0,0,1,2.41.43,5.85,5.85,0,0,1,2,1.41l-1.83,1.76a4.46,4.46,0,0,0-1.19-1,3,3,0,0,0-1.35-.29,2.92,2.92,0,0,0-2.46,1.17,3.09,3.09,0,0,0-.62,1.28,8.85,8.85,0,0,0-.17,1.9,9,9,0,0,0,.17,1.92,3.09,3.09,0,0,0,.62,1.3,2.91,2.91,0,0,0,2.46,1.17,3,3,0,0,0,1.35-.28,4.46,4.46,0,0,0,1.19-1l1.83,1.73A6,6,0,0,1,858,803.25Z"/>
      <path class="cls-6" d="M864.24,797.73a3.94,3.94,0,0,0,.86,2.69,3.16,3.16,0,0,0,2.51,1,4.28,4.28,0,0,0,1.82-.33,5.08,5.08,0,0,0,1.4-1l1.7,1.58a9.31,9.31,0,0,1-1,.89,5.77,5.77,0,0,1-1.1.64,6,6,0,0,1-1.28.39,8.78,8.78,0,0,1-1.55.13,7.57,7.57,0,0,1-2.35-.35,4.73,4.73,0,0,1-1.89-1.14,5.59,5.59,0,0,1-1.28-2.09,9.19,9.19,0,0,1-.48-3.16,7.25,7.25,0,0,1,1.54-5,5.22,5.22,0,0,1,4.11-1.75,5.75,5.75,0,0,1,2.38.47,4.94,4.94,0,0,1,1.77,1.29,5.68,5.68,0,0,1,1.1,2,8.31,8.31,0,0,1,.38,2.56v1.17Zm5.87-2.81a3.23,3.23,0,0,0-.27-.82,2.63,2.63,0,0,0-1-1.2,2.86,2.86,0,0,0-1.62-.45,2.91,2.91,0,0,0-1.63.45,2.61,2.61,0,0,0-1,1.2,2.88,2.88,0,0,0-.26.82c0,.25-.06.57-.08,1h6A7.54,7.54,0,0,0,870.12,794.92Z"/>
    </g>
  </g>
  <path class="cls-3" d="M679.79,383.55c-1.18,2.47-2.37,4.94-3.54,7.42-8.06,17.06-16.16,34.1-24.12,51.21-1,2.24-2.29,3.07-4.7,2.9a88.22,88.22,0,0,0-9,0,2.66,2.66,0,0,1-2.83-1.77Q623,417.15,610.35,391.06c-1.18-2.45-2.42-4.87-3.64-7.3l-.66.15c0,.95-.13,1.89-.13,2.84q0,39.22,0,78.45c0,3.05,0,3.06-3,3.06-4.4,0-8.79-.06-13.19,0-1.82,0-2.6-.43-2.6-2.44q.07-61.44,0-122.87c0-1.69.52-2.3,2.26-2.26q7.17.15,14.35,0a3.07,3.07,0,0,1,3.31,2.1q17.5,37.47,35.13,74.88c.35.75.77,1.46,1.39,2.6.51-.88.88-1.4,1.14-2Q662,380.67,679.35,343c.73-1.59,1.52-2.35,3.42-2.29,4.78.16,9.56.11,14.34,0,1.64,0,2.32.36,2.32,2.17q-.07,61.55,0,123.11c0,1.69-.49,2.33-2.23,2.29-4.63-.09-9.26-.13-13.88,0-2.2.07-2.71-.76-2.71-2.81q.08-39.45,0-78.91V383.7Z"/>
  <path class="cls-3" d="M811.3,600.83v-3q0-41.54,0-83.08c0-2.2.54-3,2.81-2.87,4.7.17,9.41.12,14.11,0,1.74,0,2.22.57,2.22,2.27q-.06,61.44,0,122.88c0,1.85-.54,2.41-2.37,2.36q-6.47-.18-13,0a3.65,3.65,0,0,1-3.56-1.9q-19.55-29.9-39.19-59.75-8.7-13.24-17.41-26.47c-.28-.43-.62-.83-1.38-1.83-.15,1.55-.31,2.46-.31,3.37q0,41.54,0,83.08c0,3.46,0,3.46-3.54,3.46-4.17,0-8.34-.13-12.49.05-2.32.1-2.79-.74-2.79-2.9q.09-53,0-106c0-5.32.11-10.65-.05-16-.07-2.21.71-2.76,2.77-2.68,4,.14,8,.14,12,0a4.19,4.19,0,0,1,4.13,2.18q15.79,24.21,31.74,48.33,12,18.26,24,36.5c.48.74,1,1.43,1.55,2.14Z"/>
  <path class="cls-3" d="M1220,412l29.25,56.21H1245c-5.09,0-10.19-.09-15.27,0-2,.06-3-.68-3.84-2.45-8.06-16.29-16.26-32.52-24.32-48.82-.94-1.9-2-2.71-4.19-2.66-6.48.16-13,.12-19.44,0-1.86,0-2.33.6-2.32,2.38.06,16.2,0,32.4.08,48.6,0,2.16-.48,3-2.79,2.92-4.7-.17-9.41-.11-14.11,0-1.73,0-2.23-.59-2.23-2.29q.06-61.56,0-123.12c0-1.58.43-2.16,2.09-2.16,16.28.05,32.56-.22,48.83.11,12.57.26,23.61,4.5,31.3,15.07,5.68,7.81,7.37,16.73,6.5,26.28-1.36,15-10,24-23.51,29.06C1221.3,411.43,1220.83,411.68,1220,412Zm-44.37-34c0,5.94.09,11.87,0,17.81-.05,2.15.62,2.76,2.73,2.74,8.94-.1,17.89,0,26.83-.06,11.84-.14,22-7.1,21.39-21.45-.44-10.89-7.9-18.28-18.3-19-10.05-.68-20.17-.33-30.26-.49-1.77,0-2.41.55-2.38,2.4C1175.74,366,1175.67,372,1175.67,378.06Z"/>
  <path class="cls-3" d="M1126.26,291.8c-7.36,0-14.14.07-20.92-.1-.79,0-1.81-1.25-2.26-2.14-8-15.83-16-31.66-23.75-47.6-1.45-3-3-4.17-6.41-4-6,.33-12,.16-18,.05-1.84,0-2.35.55-2.35,2.36.06,16.2,0,32.4.08,48.6,0,2.19-.52,3-2.81,2.88-4.54-.17-9.1-.13-13.65,0-1.88.05-2.37-.64-2.36-2.41.06-11.34,0-22.68,0-34q0-43.85,0-87.71c0-3.34,0-3.35,3.43-3.34,15.81,0,31.63-.14,47.44.06,9.39.12,18.05,2.82,25.44,8.92a33.66,33.66,0,0,1,11.82,21.1,39.06,39.06,0,0,1-1.44,20.06c-3.61,9.94-10.94,16.16-20.61,19.89l-2.88,1.13Zm-73.69-90.23c0,6.16,0,12.33,0,18.49,0,1.6.54,2.24,2.14,2.16,1.77-.08,3.54,0,5.32,0,8.46-.12,16.94,0,25.39-.45,9.72-.5,19.25-7.84,18.09-22.19a19,19,0,0,0-18.4-17.88c-10.07-.43-20.17-.27-30.25-.42-1.86,0-2.32.77-2.3,2.51C1052.62,189.7,1052.57,195.63,1052.57,201.57Z"/>
  <path class="cls-3" d="M1072.92,412.57V440.3c0,2.78.16,5.56,0,8.33-.17,2.32.72,2.79,2.88,2.78,18.67-.08,37.33,0,56,0,3.33,0,3.33,0,3.34,3.44s-.12,7.1,0,10.64c.11,2.26-.69,2.87-2.9,2.86-23.91-.07-47.82,0-71.73,0-1.39,0-2.78-.09-4.16,0-1.87.16-2.58-.48-2.53-2.46.12-5.24,0-10.49,0-15.73q0-53.22-.05-106.44c0-2.36.63-3,3-2.95q37.72.13,75.43,0c2.42,0,3,.74,2.93,3-.17,3.77-.15,7.56,0,11.33.08,2.06-.65,2.63-2.66,2.62-18.51-.06-37,0-55.53,0-.77,0-1.54,0-2.31,0-1.29,0-1.72.59-1.71,1.85q0,17.24,0,34.48c0,1.72.93,1.81,2.21,1.81,7.1,0,14.19,0,21.29,0,9.1,0,18.2,0,27.3,0,1.91,0,2.56.53,2.49,2.48-.14,4-.13,8,0,12,.06,1.85-.54,2.37-2.37,2.36-16-.06-31.93,0-47.9,0Z"/>
  <path class="cls-3" d="M631.67,575.7c0-20.29,0-40.58-.06-60.86,0-2.41.73-2.93,3-2.92q37.72.12,75.44,0c2.25,0,2.93.64,2.83,2.86-.17,3.77-.16,7.56,0,11.34.09,2.12-.57,2.75-2.72,2.74-18.74-.08-37.49,0-56.24,0-3.48,0-3.49,0-3.49,3.4,0,10.57,0,21.14,0,31.7,0,2,.52,2.79,2.73,2.78,16-.1,31.94,0,47.9-.1,2.08,0,2.66.62,2.58,2.63-.14,3.93-.14,7.87,0,11.8.07,2-.67,2.45-2.53,2.44-15.81-.06-31.63,0-47.44,0-3.19,0-3.2,0-3.21,3.22q0,16.43,0,32.86c0,2.87.13,3,3,3h56.24c3.13,0,3.13,0,3.13,3.19,0,3.86-.05,7.72,0,11.57,0,1.56-.41,2.17-2.08,2.17q-38.53-.07-77.06,0c-2.19,0-2.07-1.18-2.07-2.64Q631.68,606.25,631.67,575.7Z"/>
  <path class="cls-3" d="M966.7,575.6q0-30.2,0-60.4c0-3.22,0-3.23,3.09-3.23,25.07,0,50.14,0,75.21-.05,2.31,0,3.13.54,3,2.94-.21,3.54-.05,7.09-.05,10.64,0,3.3,0,3.31-3.21,3.31H989c-3.47,0-3.47,0-3.47,3.38q0,15.62,0,31.24c0,3.2,0,3.2,3.1,3.2,15.81,0,31.63,0,47.44-.05,2.19,0,2.78.65,2.7,2.75-.15,3.93-.14,7.87,0,11.8.07,1.91-.65,2.33-2.41,2.33-15.89-.05-31.78,0-47.67,0-3.15,0-3.15,0-3.15,3.24,0,11,.06,21.91-.05,32.86,0,2.37.74,3,3,3,18.75-.07,37.49,0,56.24,0,3.23,0,3.23,0,3.23,3.31,0,3.86,0,7.72,0,11.57,0,1.48-.43,2-2,2q-38.65-.05-77.3,0c-2.25,0-2-1.35-2-2.74Q966.7,606.15,966.7,575.6Z"/>
  <path class="cls-3" d="M835.24,386.78q0-21.52,0-43c0-3,0-3,3.08-3,4.32,0,8.64.13,13-.05,2.33-.1,2.79.75,2.78,2.9q-.1,41,0,81.91c0,8,2.35,15.2,8.55,20.71a22.79,22.79,0,0,0,15.13,6c4,.05,8.27,0,12.1-1.13,10-2.91,15.49-10.14,17.2-20.26a47.65,47.65,0,0,0,.51-7.82q.05-39.68,0-79.37c0-2.38.65-3,3-2.94,4.62.18,9.25.11,13.88,0,1.65,0,2.3.39,2.3,2.18,0,27.38.07,54.76-.08,82.14-.07,12.94-4.19,24.4-14.24,33.1-7.82,6.77-17,10.23-27.35,11.06-10.86.88-21.07-1.11-30.27-6.94-13.08-8.29-19.34-20.54-19.48-35.91C835.15,413.16,835.24,400,835.24,386.78Z"/>
  <path class="cls-3" d="M786.45,209.82q0,19.9,0,39.8c0,22.23-15.29,39.62-37.37,42.7-12.9,1.8-25-.06-35.92-7.53-10.53-7.23-16.27-17.44-17.6-30.1a94.47,94.47,0,0,1-.43-9.68c0-25.92,0-51.83-.07-77.75,0-2.4.67-3,3-2.93,4.31.18,8.64.05,13,.05,3.18,0,3.18,0,3.18,3.09,0,27.46-.05,54.92,0,82.38,0,9,3.25,16.59,10.88,21.82,11.66,8,36.26,6.47,41.42-14.65a41.25,41.25,0,0,0,1.09-9.59c.08-26.61,0-53.22,0-79.83,0-3.21,0-3.21,3.1-3.21,4.24,0,8.49.13,12.72-.05,2.29-.1,3,.49,3,2.91C786.39,181.43,786.45,195.63,786.45,209.82Z"/>
  <path class="cls-3" d="M907.24,291.67c.91-2.52,1.73-4.82,2.56-7.1q21.52-58.72,43-117.46c.75-2.07,1.67-2.94,3.93-2.79a79.13,79.13,0,0,0,9.71,0c2-.12,3,.61,3.66,2.51q10.5,29,21.15,57.87,11.79,32.18,23.6,64.36c.29.78.53,1.57.87,2.59-.89.06-1.55.15-2.21.15-5.17,0-10.33-.06-15.5,0a2.7,2.7,0,0,1-3.12-2.21c-2.28-7-4.81-14-7.12-21-.56-1.7-1.27-2.42-3.21-2.41q-23.13.13-46.26,0a2.58,2.58,0,0,0-3,2.08c-2.33,7.09-4.89,14.1-7.21,21.19a2.85,2.85,0,0,1-3.3,2.32c-5.09-.13-10.18,0-15.27,0C908.9,291.81,908.23,291.73,907.24,291.67Zm74.42-41.41-19.37-56.65-.74.13-19.84,56.53Z"/>
  <path class="cls-3" d="M367.4,227.84c0-20.21,0-40.42,0-60.63,0-2.17.49-2.9,2.79-2.89,15.74.1,31.48-.24,47.21.15,14.2.35,26.41,5.54,33.82,18.27,11.9,20.45,5,53-27.45,58.14a80.47,80.47,0,0,1-11.75.55q-11.45.12-22.91,0c-2,0-2.65.56-2.64,2.63.08,15,0,30.08.1,45.12,0,2.22-.7,2.74-2.77,2.68-4.47-.13-9-.17-13.42,0-2.3.09-3-.52-3-2.93C367.44,268.57,367.4,248.21,367.4,227.84Zm19.07-25c0,6.47.05,12.95,0,19.42,0,1.72.53,2.28,2.24,2.27,9.09-.06,18.19,0,27.28-.06a24.36,24.36,0,0,0,5-.64c11.47-2.53,16.76-10.33,16.61-21.42-.13-9.82-4.91-16.7-13.63-19.57a30.68,30.68,0,0,0-8.81-1.5c-8.78-.19-17.57,0-26.35-.1-1.77,0-2.4.57-2.37,2.41C386.54,190.07,386.47,196.46,386.48,202.86Z"/>
  <path class="cls-3" d="M727,404.49c0-20.29,0-40.58-.06-60.87,0-2.4.69-2.94,3-2.93,15.35.1,30.7-.06,46.05.1,9.29.09,18,2.53,25.52,8.16,8.32,6.2,12.71,14.62,14.1,24.79a40.07,40.07,0,0,1-2.66,21.5c-5.39,12.65-15.5,19.4-28.64,21.91a70.7,70.7,0,0,1-11.94.93c-7.71.14-15.43,0-23.14,0-3.44,0-3.45,0-3.45,3.36q0,20.37,0,40.73c0,6,0,6-6.11,6-3.24,0-6.49-.13-9.72,0-2.3.13-3-.55-3-3C727.06,445.06,727,424.78,727,404.49Zm18.78-25.22q0,7.4,0,14.79c0,6.84,0,6.9,6.93,6.83,8.92-.1,17.87,0,26.76-.55a18.48,18.48,0,0,0,16.63-13.88,33.63,33.63,0,0,0,.8-8.44c0-12-8.65-19.33-19.16-19.95-9.75-.57-19.55-.29-29.32-.47-2,0-2.69.74-2.67,2.71C745.86,366.63,745.8,373,745.8,379.27Z"/>
  <path class="cls-3" d="M587.14,228q0-30.31,0-60.62c0-3,0-3,3.08-3,15.66,0,31.31-.16,47,.07,10,.14,19.11,3.27,26.7,10,9.07,8,12.29,18.4,12.06,30.26-.39,19.77-14.27,33.34-32.23,36.18a56,56,0,0,1-8.28.57c-8.71.07-17.43,0-26.14,0-3.36,0-3.37,0-3.37,3.28,0,14.81,0,29.61,0,44.42,0,2.17-.65,2.77-2.75,2.7-4.47-.14-8.95-.16-13.42,0-2.22.08-2.7-.74-2.7-2.79C587.17,268.72,587.14,248.36,587.14,228Zm18.78-25c0,6.4,0,12.8,0,19.19,0,1.82.63,2.42,2.42,2.4,9-.06,18,.2,27.05-.09,11-.35,20.11-5.83,21.56-18,1.32-11-3-20.94-15-24.15a30.15,30.15,0,0,0-7.29-1c-8.71-.12-17.42,0-26.13-.08-2.08,0-2.62.78-2.59,2.74C606,190.31,605.93,196.63,605.93,202.95Z"/>
  <path class="cls-3" d="M361.55,624.44l11.82-13c2,1.67,3.68,3.16,5.46,4.49,6,4.46,12.85,6.41,20.17,7.23,6.42.72,12.78.7,19-1.06,6.71-1.9,12.25-5.5,14.09-12.66,2.91-11.3-1.43-22.08-15.65-24.16-7.9-1.16-15.85-2.15-23.67-3.77-9.65-2-18.09-6.32-23.25-15.24-4-7-4.92-14.59-4.1-22.54a34.47,34.47,0,0,1,11.55-23,37.42,37.42,0,0,1,20.17-9c11-1.53,22-1.24,32.59,2.56a49.67,49.67,0,0,1,17,10.64L435.2,537c-.65-.51-1.15-.85-1.59-1.25-6.13-5.51-13.57-7.87-21.57-8.25a48.49,48.49,0,0,0-13.74,1c-13.63,3.35-17.42,17.17-13,26.65,2.71,5.83,8.13,8.34,14,9.56,6.76,1.4,13.65,2.19,20.47,3.35,8.7,1.49,16.93,4.07,23.27,10.73,5,5.23,7.38,11.58,8.31,18.64a37.19,37.19,0,0,1-2.82,21c-5.09,11-14.17,17.13-25.5,20a75.44,75.44,0,0,1-42.55-1.69A48.38,48.38,0,0,1,361.55,624.44Z"/>
  <path class="cls-3" d="M945.36,549.62c-6.22,0-12.14.05-18.06-.08-.57,0-1.27-1.07-1.65-1.79-2-3.7-3.39-7.85-5.93-11.11-7-8.93-16.62-10.44-26.9-7.81s-16.22,9.53-18,20c-2.12,12.32-1.39,24.75-1.27,37.13a96.76,96.76,0,0,0,1.86,18.77c2.29,11,11.89,18.38,23.15,18.77,13.41.46,22.71-6,26.93-19,.74-2.28,1.74-3,4-2.87,4.54.18,9.1.11,13.65,0,1.86,0,2.3.74,1.93,2.39-4.16,18.77-16.21,32.24-35.25,35.56s-37.27-2.73-48.39-19.17A35.59,35.59,0,0,1,855.36,602c-.62-13.84-1-27.71-.9-41.57,0-8.13.71-16.34,4.08-24,5.59-12.64,15.5-20.5,28.6-23.89,13.52-3.5,26.76-2.3,38.88,5.37,10.39,6.58,15.9,16.46,18.7,28.1C945,547.14,945.12,548.26,945.36,549.62Z"/>
  <path class="cls-3" d="M452.52,430.84c-2.77,20.53-17.75,35.67-38,38.14-17.3,2.11-32.14-2.85-43.56-16.47a36.84,36.84,0,0,1-8.08-19.59,152.4,152.4,0,0,1-1.06-16.8c-.13-10.56-.19-21.14.12-31.69.68-22.47,12.22-38.25,34.35-43.32,17-3.89,32.65-.49,45.15,12.68,5.78,6.09,10.65,17.28,11.07,25h-2.22c-4.63,0-9.26-.12-13.88.05-2.14.08-3.14-.54-3.73-2.65A26.71,26.71,0,0,0,423.57,362c-8-6.26-17-6.83-26.22-3.41-9,3.35-14.1,10.23-15.43,19.69-1.91,13.63-1.88,27.34-1,41a95.64,95.64,0,0,0,1.94,15.51c2.33,9.94,12.24,17.25,22.44,17.52,7.26.19,14-.94,19.48-6.13A30.93,30.93,0,0,0,433,432.51c.34-1.09.56-2,2-2,5.55.06,11.11,0,16.66.05A2.93,2.93,0,0,1,452.52,430.84Z"/>
  <path class="cls-3" d="M555,549.63c-2.47,0-4.94-.07-7.4,0-1.51.06-2.15-.51-2.58-2-1.69-5.64-4.43-10.73-9.07-14.47-7.87-6.34-16.85-6.9-26-3.73-8.74,3-14.14,9.49-15.61,18.72a119.48,119.48,0,0,0-1.4,15.6c-.22,8.38-.27,16.78,0,25.16a86.82,86.82,0,0,0,1.82,15.76c2.45,11,11.86,18.38,23.13,18.78,13.44.48,22.88-6.15,27-19.24.67-2.13,1.6-2.72,3.7-2.66,4.7.15,9.41.08,14.11,0,1.51,0,2.15.48,1.8,2.06-2.76,12.34-8.5,22.76-19.38,29.78a44.87,44.87,0,0,1-22.47,6.86c-11.46.6-22-2-31.33-8.85-10-7.33-15.3-17.22-16.67-29.42-1.64-14.6-.87-29.26-.77-43.89.05-7.67,1-15.38,4.35-22.49,5.94-12.69,16.18-20.39,29.5-23.47,13.07-3,25.9-1.75,37.57,5.65,11,7,16.47,17.55,19.22,29.86.32,1.45-.29,1.94-1.71,1.9C560.29,549.59,557.66,549.63,555,549.63Z"/>
  <path class="cls-3" d="M999.32,413c0,17.51,0,35,0,52.52,0,2.17-.64,2.8-2.74,2.73-4.39-.13-8.79,0-13.19,0-3.19,0-3.19,0-3.19-3.12q0-51.48,0-103a16.11,16.11,0,0,1,0-2.08c.26-2-.72-2.54-2.55-2.49-3.16.09-6.32,0-9.49,0-6.94,0-13.88,0-20.82,0-1.8,0-2.43-.53-2.38-2.39.13-4.08.1-8.18,0-12.26,0-1.66.4-2.3,2.19-2.3q42.57.07,85.15,0c1.81,0,2.21.67,2.17,2.31-.09,4.09-.12,8.18,0,12.26.06,1.88-.62,2.38-2.39,2.37-9.79-.06-19.59,0-29.38,0-3.45,0-3.46,0-3.46,3.35Q999.32,387,999.32,413Z"/>
  <path class="cls-3" d="M813.12,228.16c0-20.29,0-40.57-.05-60.86,0-2.32.56-3.08,2.95-3,4.54.2,9.1.12,13.65,0,1.73,0,2.29.56,2.26,2.26-.08,5.24,0,10.49,0,15.74q0,44.55,0,89.09c0,3.57,0,3.57,3.5,3.57,18.44,0,36.87,0,55.31,0,2.07,0,2.88.48,2.8,2.68-.16,4-.09,8,0,12,0,1.57-.48,2.17-2.12,2.16q-38.07-.06-76.13,0c-2.13,0-2.12-1.08-2.12-2.6Q813.13,258.71,813.12,228.16Z"/>
  <path class="cls-3" d="M605.92,576q0,30,0,59.9c0,4,.29,3.53-3.65,3.54-4.16,0-8.33-.11-12.49,0-2.07.08-2.59-.61-2.59-2.62q.09-41.28,0-82.57c0-13.18,0-26.37,0-39.55,0-2,.41-2.88,2.66-2.8,4.54.18,9.1.14,13.64,0,1.95-.05,2.47.61,2.47,2.51Q605.87,545.19,605.92,576Z"/>
  <g>
    <g>
      <ellipse class="cls-7" cx="517.08" cy="426.62" rx="48.01" ry="47.51"/>
      <ellipse class="cls-8" cx="517.08" cy="423.23" rx="48.01" ry="47.51"/>
      <ellipse class="cls-9" cx="517.08" cy="419.83" rx="48.01" ry="47.51"/>
      <ellipse class="cls-10" cx="517.08" cy="416.43" rx="48.01" ry="47.51"/>
      <ellipse class="cls-11" cx="517.08" cy="413.03" rx="48.01" ry="47.51"/>
      <ellipse class="cls-12" cx="517.08" cy="409.64" rx="48.01" ry="47.51"/>
      <ellipse class="cls-13" cx="517.08" cy="406.24" rx="48.01" ry="47.51"/>
      <ellipse class="cls-14" cx="517.08" cy="402.84" rx="48.01" ry="47.51"/>
      <ellipse class="cls-15" cx="517.08" cy="399.44" rx="48.01" ry="47.51"/>
      <ellipse class="cls-16" cx="517.08" cy="396.04" rx="48.01" ry="47.51"/>
      <ellipse class="cls-17" cx="517.08" cy="392.65" rx="48.01" ry="47.51"/>
      <ellipse class="cls-18" cx="517.08" cy="389.25" rx="48.01" ry="47.51"/>
      <ellipse class="cls-19" cx="517.08" cy="385.85" rx="48.01" ry="47.51"/>
      <ellipse class="cls-20" cx="517.08" cy="382.45" rx="48.01" ry="47.51"/>
      <ellipse class="cls-21" cx="517.08" cy="379.05" rx="48.01" ry="47.51"/>
      <ellipse class="cls-22" cx="517.08" cy="375.66" rx="48.01" ry="47.51"/>
      <ellipse class="cls-23" cx="517.08" cy="372.26" rx="48.01" ry="47.51"/>
      <ellipse class="cls-24" cx="517.08" cy="368.86" rx="48.01" ry="47.51"/>
      <ellipse class="cls-25" cx="517.08" cy="365.46" rx="48.01" ry="47.51"/>
      <ellipse class="cls-26" cx="517.08" cy="362.06" rx="48.01" ry="47.51"/>
      <ellipse class="cls-27" cx="517.08" cy="358.67" rx="48.01" ry="47.51"/>
      <ellipse class="cls-28" cx="517.08" cy="355.27" rx="48.01" ry="47.51"/>
      <ellipse class="cls-29" cx="517.08" cy="351.87" rx="48.01" ry="47.51"/>
      <ellipse class="cls-30" cx="517.08" cy="348.47" rx="48.01" ry="47.51"/>
      <ellipse class="cls-31" cx="517.08" cy="345.07" rx="48.01" ry="47.51"/>
      <ellipse class="cls-32" cx="517.08" cy="341.68" rx="48.01" ry="47.51"/>
      <ellipse class="cls-33" cx="517.08" cy="338.28" rx="48.01" ry="47.51"/>
      <ellipse class="cls-34" cx="517.08" cy="334.88" rx="48.01" ry="47.51"/>
      <ellipse class="cls-35" cx="517.08" cy="331.48" rx="48.01" ry="47.51"/>
      <ellipse class="cls-36" cx="517.08" cy="328.09" rx="48.01" ry="47.51"/>
      <ellipse class="cls-37" cx="517.08" cy="324.69" rx="48.01" ry="47.51"/>
      <ellipse class="cls-38" cx="517.08" cy="321.29" rx="48.01" ry="47.51"/>
      <ellipse class="cls-39" cx="517.08" cy="317.89" rx="48.01" ry="47.51"/>
      <ellipse class="cls-40" cx="517.08" cy="314.49" rx="48.01" ry="47.51"/>
      <ellipse class="cls-41" cx="517.08" cy="311.1" rx="48.01" ry="47.51"/>
      <ellipse class="cls-42" cx="517.08" cy="307.7" rx="48.01" ry="47.51"/>
      <ellipse class="cls-43" cx="517.08" cy="304.3" rx="48.01" ry="47.51"/>
      <ellipse class="cls-44" cx="517.08" cy="300.9" rx="48.01" ry="47.51"/>
      <ellipse class="cls-45" cx="517.08" cy="297.5" rx="48.01" ry="47.51"/>
      <ellipse class="cls-46" cx="517.08" cy="294.11" rx="48.01" ry="47.51"/>
      <ellipse class="cls-47" cx="517.08" cy="290.71" rx="48.01" ry="47.51"/>
      <ellipse class="cls-48" cx="517.08" cy="287.31" rx="48.01" ry="47.51"/>
      <ellipse class="cls-49" cx="517.08" cy="283.91" rx="48.01" ry="47.51"/>
      <ellipse class="cls-50" cx="517.08" cy="280.51" rx="48.01" ry="47.51"/>
      <ellipse class="cls-51" cx="517.08" cy="277.12" rx="48.01" ry="47.51"/>
      <ellipse class="cls-52" cx="517.08" cy="273.72" rx="48.01" ry="47.51"/>
      <ellipse class="cls-53" cx="517.08" cy="270.32" rx="48.01" ry="47.51"/>
      <ellipse class="cls-54" cx="517.08" cy="266.92" rx="48.01" ry="47.51"/>
      <ellipse class="cls-55" cx="517.08" cy="263.53" rx="48.01" ry="47.51"/>
      <ellipse class="cls-56" cx="517.08" cy="260.13" rx="48.01" ry="47.51"/>
      <ellipse class="cls-57" cx="517.08" cy="256.73" rx="48.01" ry="47.51"/>
      <ellipse class="cls-58" cx="517.08" cy="253.33" rx="48.01" ry="47.51"/>
      <ellipse class="cls-59" cx="517.08" cy="249.93" rx="48.01" ry="47.51"/>
      <ellipse class="cls-60" cx="517.08" cy="246.54" rx="48.01" ry="47.51"/>
    </g>
    <g class="cls-61">
      <ellipse class="cls-62" cx="517.08" cy="426.62" rx="48.01" ry="47.51"/>
      <ellipse class="cls-63" cx="517.08" cy="425.92" rx="48.01" ry="47.51"/>
      <ellipse class="cls-64" cx="517.08" cy="425.21" rx="48.01" ry="47.51"/>
      <ellipse class="cls-65" cx="517.08" cy="424.5" rx="48.01" ry="47.51"/>
      <ellipse class="cls-66" cx="517.08" cy="423.79" rx="48.01" ry="47.51"/>
      <ellipse class="cls-67" cx="517.08" cy="423.08" rx="48.01" ry="47.51"/>
      <ellipse class="cls-68" cx="517.08" cy="422.37" rx="48.01" ry="47.51"/>
      <ellipse class="cls-69" cx="517.08" cy="421.66" rx="48.01" ry="47.51"/>
      <ellipse class="cls-70" cx="517.08" cy="420.95" rx="48.01" ry="47.51"/>
      <ellipse class="cls-71" cx="517.08" cy="420.24" rx="48.01" ry="47.51"/>
      <ellipse class="cls-72" cx="517.08" cy="419.53" rx="48.01" ry="47.51"/>
      <ellipse class="cls-73" cx="517.08" cy="418.82" rx="48.01" ry="47.51"/>
      <ellipse class="cls-74" cx="517.08" cy="418.12" rx="48.01" ry="47.51"/>
      <ellipse class="cls-75" cx="517.08" cy="417.41" rx="48.01" ry="47.51"/>
      <ellipse class="cls-76" cx="517.08" cy="416.7" rx="48.01" ry="47.51"/>
      <ellipse class="cls-77" cx="517.08" cy="415.99" rx="48.01" ry="47.51"/>
      <ellipse class="cls-78" cx="517.08" cy="415.28" rx="48.01" ry="47.51"/>
      <ellipse class="cls-79" cx="517.08" cy="414.57" rx="48.01" ry="47.51"/>
      <ellipse class="cls-80" cx="517.08" cy="413.86" rx="48.01" ry="47.51"/>
      <ellipse class="cls-81" cx="517.08" cy="413.15" rx="48.01" ry="47.51"/>
      <ellipse class="cls-82" cx="517.08" cy="412.44" rx="48.01" ry="47.51"/>
      <ellipse class="cls-83" cx="517.08" cy="411.73" rx="48.01" ry="47.51"/>
      <ellipse class="cls-84" cx="517.08" cy="411.02" rx="48.01" ry="47.51"/>
      <ellipse class="cls-85" cx="517.08" cy="410.32" rx="48.01" ry="47.51"/>
      <ellipse class="cls-86" cx="517.08" cy="409.61" rx="48.01" ry="47.51"/>
      <ellipse class="cls-87" cx="517.08" cy="408.9" rx="48.01" ry="47.51"/>
      <ellipse class="cls-88" cx="517.08" cy="408.19" rx="48.01" ry="47.51"/>
      <ellipse class="cls-89" cx="517.08" cy="407.48" rx="48.01" ry="47.51"/>
      <ellipse class="cls-90" cx="517.08" cy="406.77" rx="48.01" ry="47.51"/>
      <ellipse class="cls-91" cx="517.08" cy="406.06" rx="48.01" ry="47.51"/>
      <ellipse class="cls-92" cx="517.08" cy="405.35" rx="48.01" ry="47.51"/>
      <ellipse class="cls-93" cx="517.08" cy="404.64" rx="48.01" ry="47.51"/>
      <ellipse class="cls-94" cx="517.08" cy="403.93" rx="48.01" ry="47.51"/>
      <ellipse class="cls-95" cx="517.08" cy="403.22" rx="48.01" ry="47.51"/>
      <ellipse class="cls-96" cx="517.08" cy="402.52" rx="48.01" ry="47.51"/>
      <ellipse class="cls-97" cx="517.08" cy="401.81" rx="48.01" ry="47.51"/>
      <ellipse class="cls-98" cx="517.08" cy="401.1" rx="48.01" ry="47.51"/>
      <ellipse class="cls-99" cx="517.08" cy="400.39" rx="48.01" ry="47.51"/>
      <ellipse class="cls-100" cx="517.08" cy="399.68" rx="48.01" ry="47.51"/>
      <ellipse class="cls-101" cx="517.08" cy="398.97" rx="48.01" ry="47.51"/>
      <ellipse class="cls-102" cx="517.08" cy="398.26" rx="48.01" ry="47.51"/>
      <ellipse class="cls-103" cx="517.08" cy="397.55" rx="48.01" ry="47.51"/>
      <ellipse class="cls-104" cx="517.08" cy="396.84" rx="48.01" ry="47.51"/>
      <ellipse class="cls-105" cx="517.08" cy="396.13" rx="48.01" ry="47.51"/>
      <ellipse class="cls-106" cx="517.08" cy="395.43" rx="48.01" ry="47.51"/>
      <ellipse class="cls-107" cx="517.08" cy="394.72" rx="48.01" ry="47.51"/>
      <ellipse class="cls-108" cx="517.08" cy="394.01" rx="48.01" ry="47.51"/>
      <ellipse class="cls-109" cx="517.08" cy="393.3" rx="48.01" ry="47.51"/>
      <ellipse class="cls-110" cx="517.08" cy="392.59" rx="48.01" ry="47.51"/>
      <ellipse class="cls-111" cx="517.08" cy="391.88" rx="48.01" ry="47.51"/>
      <ellipse class="cls-112" cx="517.08" cy="391.17" rx="48.01" ry="47.51"/>
      <ellipse class="cls-113" cx="517.08" cy="390.46" rx="48.01" ry="47.51"/>
      <ellipse class="cls-114" cx="517.08" cy="389.75" rx="48.01" ry="47.51"/>
      <ellipse class="cls-115" cx="517.08" cy="389.04" rx="48.01" ry="47.51"/>
    </g>
    <g>
      <ellipse class="cls-116" cx="517.08" cy="248.16" rx="48.01" ry="47.51"/>
      <ellipse class="cls-117" cx="517.08" cy="247.66" rx="48.01" ry="47.51"/>
      <ellipse class="cls-118" cx="517.08" cy="247.16" rx="48.01" ry="47.51"/>
      <ellipse class="cls-119" cx="517.08" cy="246.67" rx="48.01" ry="47.51"/>
      <ellipse class="cls-120" cx="517.08" cy="246.17" rx="48.01" ry="47.51"/>
      <ellipse class="cls-121" cx="517.08" cy="245.67" rx="48.01" ry="47.51"/>
      <ellipse class="cls-122" cx="517.08" cy="245.18" rx="48.01" ry="47.51"/>
      <ellipse class="cls-123" cx="517.08" cy="244.68" rx="48.01" ry="47.51"/>
      <ellipse class="cls-124" cx="517.08" cy="244.18" rx="48.01" ry="47.51"/>
      <ellipse class="cls-125" cx="517.08" cy="243.69" rx="48.01" ry="47.51"/>
      <ellipse class="cls-126" cx="517.08" cy="243.19" rx="48.01" ry="47.51"/>
      <ellipse class="cls-127" cx="517.08" cy="242.69" rx="48.01" ry="47.51"/>
      <ellipse class="cls-128" cx="517.08" cy="242.2" rx="48.01" ry="47.51"/>
      <ellipse class="cls-129" cx="517.08" cy="241.7" rx="48.01" ry="47.51"/>
      <ellipse class="cls-130" cx="517.08" cy="241.2" rx="48.01" ry="47.51"/>
      <ellipse class="cls-131" cx="517.08" cy="240.71" rx="48.01" ry="47.51"/>
      <ellipse class="cls-132" cx="517.08" cy="240.21" rx="48.01" ry="47.51"/>
      <ellipse class="cls-133" cx="517.08" cy="239.71" rx="48.01" ry="47.51"/>
      <ellipse class="cls-134" cx="517.08" cy="239.22" rx="48.01" ry="47.51"/>
      <ellipse class="cls-135" cx="517.08" cy="238.72" rx="48.01" ry="47.51"/>
      <ellipse class="cls-136" cx="517.08" cy="238.22" rx="48.01" ry="47.51"/>
      <ellipse class="cls-137" cx="517.08" cy="237.73" rx="48.01" ry="47.51"/>
      <ellipse class="cls-138" cx="517.08" cy="237.23" rx="48.01" ry="47.51"/>
      <ellipse class="cls-139" cx="517.08" cy="236.73" rx="48.01" ry="47.51"/>
      <ellipse class="cls-140" cx="517.08" cy="236.24" rx="48.01" ry="47.51"/>
      <ellipse class="cls-141" cx="517.08" cy="235.74" rx="48.01" ry="47.51"/>
      <ellipse class="cls-142" cx="517.08" cy="235.24" rx="48.01" ry="47.51"/>
      <ellipse class="cls-143" cx="517.08" cy="234.75" rx="48.01" ry="47.51"/>
      <ellipse class="cls-144" cx="517.08" cy="234.25" rx="48.01" ry="47.51"/>
      <ellipse class="cls-145" cx="517.08" cy="233.75" rx="48.01" ry="47.51"/>
      <ellipse class="cls-146" cx="517.08" cy="233.26" rx="48.01" ry="47.51"/>
      <ellipse class="cls-147" cx="517.08" cy="232.76" rx="48.01" ry="47.51"/>
      <ellipse class="cls-148" cx="517.08" cy="232.26" rx="48.01" ry="47.51"/>
      <ellipse class="cls-149" cx="517.08" cy="231.77" rx="48.01" ry="47.51"/>
      <ellipse class="cls-150" cx="517.08" cy="231.27" rx="48.01" ry="47.51"/>
      <ellipse class="cls-151" cx="517.08" cy="230.77" rx="48.01" ry="47.51"/>
      <ellipse class="cls-152" cx="517.08" cy="230.28" rx="48.01" ry="47.51"/>
      <ellipse class="cls-153" cx="517.08" cy="229.78" rx="48.01" ry="47.51"/>
      <ellipse class="cls-154" cx="517.08" cy="229.28" rx="48.01" ry="47.51"/>
      <ellipse class="cls-155" cx="517.08" cy="228.79" rx="48.01" ry="47.51"/>
      <ellipse class="cls-155" cx="517.08" cy="228.29" rx="48.01" ry="47.51"/>
      <ellipse class="cls-156" cx="517.08" cy="227.79" rx="48.01" ry="47.51"/>
      <ellipse class="cls-157" cx="517.08" cy="227.3" rx="48.01" ry="47.51"/>
      <ellipse class="cls-158" cx="517.08" cy="226.8" rx="48.01" ry="47.51"/>
      <ellipse class="cls-159" cx="517.08" cy="226.3" rx="48.01" ry="47.51"/>
      <ellipse class="cls-160" cx="517.08" cy="225.81" rx="48.01" ry="47.51"/>
      <ellipse class="cls-161" cx="517.08" cy="225.31" rx="48.01" ry="47.51"/>
      <ellipse class="cls-162" cx="517.08" cy="224.81" rx="48.01" ry="47.51"/>
      <ellipse class="cls-163" cx="517.08" cy="224.31" rx="48.01" ry="47.51"/>
      <ellipse class="cls-164" cx="517.08" cy="223.82" rx="48.01" ry="47.51"/>
      <ellipse class="cls-165" cx="517.08" cy="223.32" rx="48.01" ry="47.51"/>
      <ellipse class="cls-166" cx="517.08" cy="222.82" rx="48.01" ry="47.51"/>
      <ellipse class="cls-167" cx="517.08" cy="222.33" rx="48.01" ry="47.51"/>
      <ellipse class="cls-168" cx="517.08" cy="221.83" rx="48.01" ry="47.51"/>
      <ellipse class="cls-169" cx="517.08" cy="221.33" rx="48.01" ry="47.51"/>
      <ellipse class="cls-170" cx="517.08" cy="220.84" rx="48.01" ry="47.51"/>
      <ellipse class="cls-171" cx="517.08" cy="220.34" rx="48.01" ry="47.51"/>
      <ellipse class="cls-172" cx="517.08" cy="219.84" rx="48.01" ry="47.51"/>
      <ellipse class="cls-173" cx="517.08" cy="219.35" rx="48.01" ry="47.51"/>
      <ellipse class="cls-174" cx="517.08" cy="218.85" rx="48.01" ry="47.51"/>
      <ellipse class="cls-175" cx="517.08" cy="218.35" rx="48.01" ry="47.51"/>
      <ellipse class="cls-176" cx="517.08" cy="217.86" rx="48.01" ry="47.51"/>
      <ellipse class="cls-177" cx="517.08" cy="217.36" rx="48.01" ry="47.51"/>
      <ellipse class="cls-178" cx="517.08" cy="216.86" rx="48.01" ry="47.51"/>
      <ellipse class="cls-179" cx="517.08" cy="216.37" rx="48.01" ry="47.51"/>
      <ellipse class="cls-180" cx="517.08" cy="215.87" rx="48.01" ry="47.51"/>
      <ellipse class="cls-181" cx="517.08" cy="215.37" rx="48.01" ry="47.51"/>
      <ellipse class="cls-182" cx="517.08" cy="214.88" rx="48.01" ry="47.51"/>
      <ellipse class="cls-183" cx="517.08" cy="214.38" rx="48.01" ry="47.51"/>
      <ellipse class="cls-184" cx="517.08" cy="213.88" rx="48.01" ry="47.51"/>
      <ellipse class="cls-185" cx="517.08" cy="213.39" rx="48.01" ry="47.51"/>
      <ellipse class="cls-186" cx="517.08" cy="212.89" rx="48.01" ry="47.51"/>
      <ellipse class="cls-2" cx="517.08" cy="212.39" rx="48.01" ry="47.51"/>
      <ellipse class="cls-187" cx="517.08" cy="211.9" rx="48.01" ry="47.51"/>
      <ellipse class="cls-188" cx="517.08" cy="211.4" rx="48.01" ry="47.51"/>
      <ellipse class="cls-189" cx="517.08" cy="210.9" rx="48.01" ry="47.51"/>
      <ellipse class="cls-190" cx="517.08" cy="210.41" rx="48.01" ry="47.51"/>
      <ellipse class="cls-191" cx="517.08" cy="209.91" rx="48.01" ry="47.51"/>
      <ellipse class="cls-192" cx="517.08" cy="209.41" rx="48.01" ry="47.51"/>
    </g>
  </g>
  <g>
    <path class="cls-3" d="M1265.15,767.94h3.27q4.87,0,7.55-2.78a9.44,9.44,0,0,0,2.68-7,10.16,10.16,0,0,0-2.77-7.12,9.67,9.67,0,0,0-6.91-2.78,8.6,8.6,0,0,0-5.55,2,10.27,10.27,0,0,0-3.54,6.27h-9.5a20.2,20.2,0,0,1,5.95-12.79,17,17,0,0,1,12.26-5.25q9,.09,14.35,6a20,20,0,0,1,5.18,13.5,21,21,0,0,1-1.41,7.59,15.92,15.92,0,0,1-5.86,6.52,17.05,17.05,0,0,1,6.23,6.75,19.37,19.37,0,0,1,1.83,8.25q-.09,9.61-5.76,15.14a19.56,19.56,0,0,1-14.34,5.77,17.83,17.83,0,0,1-12-4.49q-5.22-4.49-6.76-13h9.49a13.86,13.86,0,0,0,3.59,5.54,8.8,8.8,0,0,0,6.27,2.21,9.41,9.41,0,0,0,7-3q2.9-2.77,3-7.9-.09-5.22-3-8.08a10,10,0,0,0-7.26-2.77h-4.05Z"/>
    <path class="cls-3" d="M1317.87,738.55h7.24L1302.93,808h-7.24Z"/>
    <path class="cls-3" d="M1344.95,749.44l-9.42,7.13V746.14l9.42-7h9.46v68.34h-9.46Z"/>
    <path class="cls-3" d="M1376.49,758.16q.09-9.45,5.86-14.55a18.25,18.25,0,0,1,12.91-5.05,18.52,18.52,0,0,1,13.13,5.06q5.5,5.11,5.68,14.58v30.14q-.18,9.42-5.68,14.53a18.87,18.87,0,0,1-13.13,5.16,18.61,18.61,0,0,1-12.91-5.15q-5.77-5.1-5.86-14.51Zm28.13.61q-.27-10.28-9.35-10.47-9.13.19-9.31,10.47v29q.18,10.38,9.31,10.47,9.08-.09,9.35-10.47Z"/>
    <path class="cls-3" d="M1292.2,854.78v22.95h-4.66v-2.59h-12.48V890.4h-4.66V875.13H1258V878h-4.46V854.78h16.9v-8.35h4.66v8.35Zm-21.79,16V859.15H1258v11.62Zm17.14,0V859.15h-12.48v11.62Z"/>
    <path class="cls-3" d="M1342.21,868.51v4.37h-19.92c-2.21,7.15-7.63,13.58-20.5,17.57a16.53,16.53,0,0,0-2.45-3.89c10.71-3.17,15.7-8.16,18-13.68h-17.67v-4.37h5.18v-15.7h14.3v-6.38h4.51v6.38h14v15.7Zm-23.67,0a35.84,35.84,0,0,0,.58-6.77v-4.56h-9.84v11.33Zm6.62,5.76c5.38,3.65,13,9.07,16.71,12.43l-3.22,3.65a159.29,159.29,0,0,0-16.47-13Zm-1.54-12.48a44.75,44.75,0,0,1-.43,6.72h9.75V857.18h-9.31Z"/>
    <path class="cls-3" d="M1347.35,848.83h17v4h-7.2a80.93,80.93,0,0,1-2.78,10.56h9.26v21.12h-9.41v3.7h-3.74V872a28.47,28.47,0,0,1-2.26,3.31,27.56,27.56,0,0,0-1.78-5c3.17-4.27,5.23-10.61,6.48-17.43h-5.57Zm12.43,18.58h-5.57v13.2h5.57Zm31.11,2.74h-5.18v20.31h-4.27V870.14h-6.82c-.24,7.2-1.49,15.17-6.67,20.55a23.57,23.57,0,0,0-3.41-2.59c4.56-4.75,5.66-11.81,5.9-18h-4.94v-4.22h5V853.05h-3.7v-4.18h23.14v4.18h-4.22v12.87h5.18Zm-9.46-4.22V853.05h-6.77v12.87Z"/>
    <path class="cls-3" d="M1433.32,885.17c1.25,0,1.49-.91,1.68-7a12.94,12.94,0,0,0,4.22,1.87c-.48,7.54-1.68,9.46-5.42,9.46h-5c-4.18,0-5.42-1.3-5.42-6v-8h-7.39c-1,5.66-4.9,11.62-17.76,15.12a22.75,22.75,0,0,0-3.12-3.84c11-2.88,14.83-7.2,16-11.28h-12.67v-4.13h13.2v-5.57h4.66v5.57H1428v12.15c0,1.34.24,1.58,1.49,1.58ZM1401.15,860h-4.46v-9.07h18c-.38-1.25-.86-2.64-1.3-3.79l4.66-.82c.58,1.39,1.3,3.17,1.78,4.61h17.62v8.64h-4.7v-4.66h-8.45v7.2c0,1.2.24,1.68,1.39,1.68h6.63a23.86,23.86,0,0,0,3.89-.29c.1,1.15.19,2.74.34,3.74a18.52,18.52,0,0,1-4,.29h-7.1c-4.46,0-5.52-1.54-5.52-5.47v-7.15h-6.14c-1,7-3.74,11-14.26,13.1a11.54,11.54,0,0,0-2.4-3.6c9.17-1.58,11.23-4.32,12-9.5h-7.92Z"/>
    <path class="cls-3" d="M1458.95,849.83c-1.34,3.94-3,8.64-4.46,12.34a15.6,15.6,0,0,1,3.89,10.23c0,2.78-.58,4.8-2,5.86a5.63,5.63,0,0,1-2.59,1c-.86.1-2.06.1-3.17.1a9.75,9.75,0,0,0-1-3.89,21.65,21.65,0,0,0,2.45,0,2.5,2.5,0,0,0,1.39-.38,4.05,4.05,0,0,0,1-3.12c0-2.45-.77-5.66-3.94-9.26,1.2-3.17,2.5-7.2,3.36-10.37h-5.23v38h-3.94v-42h10.71l.62-.19Zm23.33,36.2c.91,0,1.1-.77,1.2-5.9a10,10,0,0,0,3.74,1.63c-.38,6.43-1.39,8.06-4.46,8.06h-3.89c-3.7,0-4.56-1.2-4.56-5.23V873.26h-4.18c-.77,8.4-3.07,14-12.14,17.19a12.38,12.38,0,0,0-2.54-3.55c8-2.54,9.74-6.87,10.37-13.63h-6.24v-4h27v4h-8.06v11.28c0,1.3.14,1.49,1.06,1.49ZM1463.22,861h-3.79v-8.83h11.67a38,38,0,0,0-2.26-4.94L1473,846a33.59,33.59,0,0,1,2.93,6.14h10.46V861h-3.79v3.65h-19.35Zm.34-4.94v4.71h18.53V856Z"/>
    <path class="cls-3" d="M1275.16,904.12c0,1.82-.1,4.32-.34,7.15.67,6,3.6,25.15,20.35,32.59a13.24,13.24,0,0,0-3.26,3.79c-11.28-5.33-16.51-15.89-19.06-24.48-2.4,9-7.49,18.72-18.34,24.72a13.81,13.81,0,0,0-3.7-3.55c19.63-10.18,19.11-32.55,19.25-40.23Z"/>
    <path class="cls-3" d="M1335.06,916.55a49.56,49.56,0,0,1-10.61,17.91,47.32,47.32,0,0,0,18.77,9.12,20.33,20.33,0,0,0-3,4.13,47.84,47.84,0,0,1-19.2-10A54.94,54.94,0,0,1,1301.36,948a23.25,23.25,0,0,0-2.78-4.27c7.73-2.06,14-5,19.11-9.22a53.88,53.88,0,0,1-10.9-18h-7.39v-4.32h20.79A38.68,38.68,0,0,0,1317,905l4.71-1.39a38.9,38.9,0,0,1,3.55,7.3l-4.27,1.34h21.55v4.32Zm-23.62,0a46.18,46.18,0,0,0,9.6,14.83,41.46,41.46,0,0,0,9-14.83Z"/>
    <path class="cls-3" d="M1362.8,933.64c-.91-1.34-2.74-3.5-4.37-5.38V948h-4.32V929.37a39.46,39.46,0,0,1-6.1,4.9,21.83,21.83,0,0,0-1.87-4.42,37.8,37.8,0,0,0,13.2-13.73h-11.86v-4h9.07a32.11,32.11,0,0,0-4.32-6.29l3.46-2a28.18,28.18,0,0,1,4.51,6.14l-3.46,2.11h4.94l.77-.19,2.4,1.68a44.63,44.63,0,0,1-5.71,10.08c1.92,1.73,5.47,5.28,6.43,6.29Zm28,8.31v4.37h-27.41v-4.37h12.1V922.89h-9.94v-4.27h9.94V904h4.56v14.59h9.7v4.27h-9.7v19.06Z"/>
    <path class="cls-3" d="M1420.16,905.13c-.24.29-.43.62-.72.91,4.46,4.13,12.58,7.78,20.07,9.36a17.84,17.84,0,0,0-2.83,3.41c-1.15-.34-2.4-.72-3.6-1.15v12.43h-32.45V918c-1.2.43-2.35.82-3.55,1.15a17.08,17.08,0,0,0-2.4-3.41c8.69-2.21,17.19-6.38,21.55-12Zm12.72,12.48a47.41,47.41,0,0,1-7.68-3.41v1.39h-16.61v-1.15a50.69,50.69,0,0,1-7,3.17ZM1403.36,932h27.36v15.79h-4.56v-1.3h-18.38V948h-4.42Zm6.53-11.18a19.73,19.73,0,0,1,2.45,5.28l-3.17,1.06h5.67v-6.62h-10.42v6.62H1409a20.79,20.79,0,0,0-2.26-5.38Zm-2.11,14.26v2.64h18.38v-2.64Zm18.38,8.4V940.8h-18.38v2.69Zm-3.79-31a32.61,32.61,0,0,1-5.28-4,36.93,36.93,0,0,1-5.23,4Zm6.77,8h-10.66v6.62h5.38l-3-.91a36,36,0,0,0,2.4-5.62l3.74,1.06c-1.06,2.06-2.11,4.08-3,5.47h5.09Z"/>
    <path class="cls-3" d="M1458.71,933.36A65.87,65.87,0,0,0,1455,927v21h-4.32V928.56a46.61,46.61,0,0,1-6.14,11.18,28.22,28.22,0,0,0-2.16-4.13,47.75,47.75,0,0,0,7.68-14.07H1443v-4.18h7.68v-6.43c-2.06.38-4.13.67-6,1a13.58,13.58,0,0,0-1.25-3.46c5.38-.86,11.52-2.26,15.27-3.89l2.54,3.65A45.44,45.44,0,0,1,1455,910v7.34h6.72v4.18H1455v.67c1.44,1.49,5.52,6.38,6.43,7.63Zm22.51,2.35V948h-4.42V936.48L1461.68,939l-.67-4.27,15.79-2.64V904h4.42v27.41l5.23-.86.67,4.18Zm-10.46-6.48a41.28,41.28,0,0,0-8-7.15l2.83-2.59a45.12,45.12,0,0,1,8.21,6.82Zm1.2-12.62a39,39,0,0,0-7.44-7l2.93-2.54a39.56,39.56,0,0,1,7.63,6.67Z"/>
    <path class="cls-3" d="M1534.21,939h-18.67v4.61c0,2.11-.48,3.17-2.16,3.74s-4.18.62-7.92.62a15.81,15.81,0,0,0-1.44-3.79c2.64.1,5.42.1,6.14.1s1-.19,1-.82V939h-19.68v-3.65h19.68V933.6a45.45,45.45,0,0,0,6.48-3.26h-17.19v-3.26h21.75l1-.24,2.54,2.3a49.41,49.41,0,0,1-10.18,5.81v.38h18.67Zm-37.54-8.79h-4.22V921h3.65l-.86-14.21a89.46,89.46,0,0,0,9.41-2.45l1.92,2.64a43.42,43.42,0,0,1-7.06,1.87l.14,1.92h6.58v2.88h-6.43l.14,2.21h6.48v2.83a27.84,27.84,0,0,0,4-2.26,33.34,33.34,0,0,0-3.12-1.73l2.16-1.87c1.06.53,2.26,1.15,3.36,1.82a13.93,13.93,0,0,0,2.16-2.35l3,1a24.58,24.58,0,0,1-2.64,2.93,24.39,24.39,0,0,1,3.17,2.45l-2.26,2.06a22.78,22.78,0,0,0-3.22-2.54,36.9,36.9,0,0,1-4.32,2.83h16.75c0-.72.14-1.44.24-2.21h-6.38v-2.93H1526l.19-2.21h-6.53v-2.88h6.72l.1-2.16h-7.06v-2.93h11.43c-.24,4.85-.67,11-1.06,15.31h3.65v9.17H1529v-5.81h-32.31Zm3.6-9.17h8.21a14.09,14.09,0,0,0-2.26-2.21h-6Zm15.89-8.83a18.37,18.37,0,0,0-3-2.26,28.23,28.23,0,0,1-4.13,2.64,22.15,22.15,0,0,0-2.45-2.06,21.18,21.18,0,0,0,3.94-2.21,25.89,25.89,0,0,0-3-1.58l2.16-1.87c1,.48,2.16,1.06,3.22,1.68a13.6,13.6,0,0,0,2-2.11l3,.82a22.53,22.53,0,0,1-2.5,2.83,23.41,23.41,0,0,1,2.93,2.11Z"/>
    <path class="cls-3" d="M1578.37,917.56V913h-17.28v3.79h17.09v12.38h-14.11v3.55h16.27v15h-3.94v-1.68h-12.34v1.87h-3.89V917.56h-2.78v-7.25l-1.87,3.31a78.19,78.19,0,0,0-6.77-4.32,46,46,0,0,1-3.17,3.6h7.83V916h-8.21v-2.69a37,37,0,0,1-4.9,4,20.73,20.73,0,0,0-1.82-4,29.1,29.1,0,0,0,9.75-9.75l3.5,1.25a9.67,9.67,0,0,1-.86,1.54c2.3,1.3,5,2.83,6.58,3.84v-.72h10.95a42.8,42.8,0,0,0-2-4.22l3.89-1.63a51.33,51.33,0,0,1,2.59,5.09l-1.54.77h10.9v8.11Zm-25.87,18a91.44,91.44,0,0,1,4.75,9.46l-3.22,1.58c-.38-1-1-2.21-1.54-3.55-9,3.55-10.42,4.22-11.33,4.9a14.36,14.36,0,0,0-1.44-3.74,2.75,2.75,0,0,0,1.78-2.78v-23h14.11v16.46h-10.27V942l5.66-2c-.58-1.1-1.06-2.16-1.58-3.12Zm-7.15-13.87v3.22h6.34v-3.22Zm6.34,9.84v-3.41h-6.34v3.41Zm12.39-11.14v5.23h10.32v-5.23Zm0,16v5.86h12.34v-5.86Z"/>
  </g>
  <rect class="cls-3" x="362" y="839" width="655" height="108"/>
  <g>
    <path class="cls-5" d="M413.73,898.52q-1.64,7.13-6.23,11a17.39,17.39,0,0,1-11.21,3.79,17.85,17.85,0,0,1-15.56-9.21q-.54-1.16-1-2.21a14.78,14.78,0,0,1-.68-2.74,139.37,139.37,0,0,1,0-23.84,14.45,14.45,0,0,1,1.67-4.89,17.48,17.48,0,0,1,5.79-6.33,17.91,17.91,0,0,1,21.49,1.5,19.49,19.49,0,0,1,5.72,10.78h-8a11.34,11.34,0,0,0-3.34-5.28,9.66,9.66,0,0,0-6.14-2.15A10.17,10.17,0,0,0,391.7,870a9.57,9.57,0,0,0-3.14,2.64,8.63,8.63,0,0,0-1.94,4.26,63.4,63.4,0,0,0-.55,10.32,61.82,61.82,0,0,0,.55,10.25,8.67,8.67,0,0,0,1.94,4.33,8.87,8.87,0,0,0,3.14,2.57,8.63,8.63,0,0,0,4.57,1.16q6.35,0,9.49-7Z"/>
    <path class="cls-5" d="M438.21,909.61h-.14a6,6,0,0,1-3.06,2.74,14.15,14.15,0,0,1-5.65.91q-5.92-.07-9.12-3.23a10.25,10.25,0,0,1-3.37-7.91,10.52,10.52,0,0,1,2.93-7.63q2.93-3.09,8.58-3.16h9.84v-3.85q.07-4.84-7.25-4.7a12.46,12.46,0,0,0-4.19.57,5.17,5.17,0,0,0-2.52,2.26l-5.58-4.4q4-5.46,11.94-5.31,6.67-.07,10.65,2.6t4,9.42v24.93h-7.09Zm0-12.24h-8.53q-6.21.14-6.14,4.4a3.94,3.94,0,0,0,1.6,3.17q1.54,1.44,5.08,1.44,4.47.07,6.31-1.09,1.67-1.16,1.67-5.28Z"/>
    <path class="cls-5" d="M455.65,861.58h7.09v41.87q0,2.5,2.66,2.5h2.46v6.89H464.7a10,10,0,0,1-6.4-2q-2.66-2-2.65-6.83Z"/>
    <path class="cls-5" d="M474.21,861.58h7.09v41.87q0,2.5,2.66,2.5h2.46v6.89h-3.16a10,10,0,0,1-6.4-2q-2.66-2-2.65-6.83Z"/>
    <path class="cls-5" d="M511.16,882h-3.58v-5.62h3.58v-4.82q0-5.2,2.79-7.66a10.28,10.28,0,0,1,6.84-2.29h4.59v6.89h-4.06q-3.21-.11-3.07,3v4.84h7.13V882h-7.13v30.87h-7.09Z"/>
    <path class="cls-5" d="M528.28,894.56a32.89,32.89,0,0,1,.92-8.87,12.92,12.92,0,0,1,2.93-5.11,13.43,13.43,0,0,1,4.09-3.25,14.76,14.76,0,0,1,6.64-1.43,15,15,0,0,1,6.78,1.44,12.78,12.78,0,0,1,3.95,3.27,11.57,11.57,0,0,1,3,5.1,35.4,35.4,0,0,1,.85,8.86,34.46,34.46,0,0,1-.85,8.79,12.61,12.61,0,0,1-3,5.24,11.2,11.2,0,0,1-1.67,1.58,7.72,7.72,0,0,1-2.28,1.51,13.8,13.8,0,0,1-6.77,1.58,14.53,14.53,0,0,1-10.72-4.68,14.15,14.15,0,0,1-2.93-5.24A32,32,0,0,1,528.28,894.56Zm22,.07a34,34,0,0,0-.34-5.71,6.84,6.84,0,0,0-1.4-3,5.26,5.26,0,0,0-2.32-1.94,7.49,7.49,0,0,0-3.41-.74,7.59,7.59,0,0,0-3.34.74,6.35,6.35,0,0,0-2.39,1.94,8.66,8.66,0,0,0-1.33,3,27.92,27.92,0,0,0-.41,5.64,27.09,27.09,0,0,0,.41,5.57,9.37,9.37,0,0,0,1.33,3.17,8.7,8.7,0,0,0,2.39,1.87,7.31,7.31,0,0,0,3.34.78,7.2,7.2,0,0,0,3.41-.78,6.73,6.73,0,0,0,2.32-1.87,7.39,7.39,0,0,0,1.4-3.17A31.86,31.86,0,0,0,550.33,894.63Z"/>
    <path class="cls-5" d="M566,876.35h7.09v3.87h.15a11.63,11.63,0,0,1,16.62-1.52L584.73,885a7.32,7.32,0,0,0-4.67-1.83,6.57,6.57,0,0,0-4.67,1.83q-2.18,1.8-2.25,5.81v22H566Z"/>
    <path class="cls-5" d="M611.32,876.35h7.09v3.8a12.06,12.06,0,0,1,9.12-4.25q6.5.18,9.5,4.78a9.74,9.74,0,0,1,2,4.54,59.56,59.56,0,0,1,.51,9.42,58.66,58.66,0,0,1-.51,9.28,10.23,10.23,0,0,1-2,4.61,10.71,10.71,0,0,1-3.85,3.38,12,12,0,0,1-5.65,1.37,9.64,9.64,0,0,1-4.87-1.22,15.44,15.44,0,0,1-4.25-3.08v18.65h-7.09ZM625.4,906a7,7,0,0,0,4-1,5.59,5.59,0,0,0,2.08-2.61,14,14,0,0,0,.92-3.67q.07-2,.07-4.06t-.07-4.27a13.08,13.08,0,0,0-.92-3.67,5.17,5.17,0,0,0-2.08-2.61,7.71,7.71,0,0,0-4-.88,6.27,6.27,0,0,0-3.78,1,6,6,0,0,0-2.15,2.68,13.81,13.81,0,0,0-.85,3.6q-.2,2-.2,4.13a37,37,0,0,0,.2,3.88,13.94,13.94,0,0,0,.85,3.7,6,6,0,0,0,2.15,2.68A6.12,6.12,0,0,0,625.4,906Z"/>
    <path class="cls-5" d="M667.26,909.61h-.14a6,6,0,0,1-3.06,2.74,14.15,14.15,0,0,1-5.65.91q-5.92-.07-9.12-3.23a10.25,10.25,0,0,1-3.37-7.91,10.52,10.52,0,0,1,2.93-7.63q2.93-3.09,8.58-3.16h9.84v-3.85q.07-4.84-7.25-4.7a12.46,12.46,0,0,0-4.19.57,5.17,5.17,0,0,0-2.52,2.26l-5.58-4.4q4-5.46,11.94-5.31,6.67-.07,10.65,2.6t4,9.42v24.93h-7.09Zm0-12.24h-8.53q-6.21.14-6.14,4.4a3.94,3.94,0,0,0,1.6,3.17q1.54,1.44,5.08,1.44,4.47.07,6.31-1.09,1.67-1.16,1.67-5.28Z"/>
    <path class="cls-5" d="M684.69,876.35h7.09v3.8a12.06,12.06,0,0,1,9.12-4.25q6.5.18,9.5,4.78a9.74,9.74,0,0,1,2,4.54,59.56,59.56,0,0,1,.51,9.42,58.66,58.66,0,0,1-.51,9.28,10.23,10.23,0,0,1-2,4.61,10.71,10.71,0,0,1-3.85,3.38,12,12,0,0,1-5.65,1.37A9.64,9.64,0,0,1,696,912a15.44,15.44,0,0,1-4.25-3.08v18.65h-7.09ZM698.77,906a7,7,0,0,0,4-1,5.59,5.59,0,0,0,2.08-2.61,14,14,0,0,0,.92-3.67q.07-2,.07-4.06t-.07-4.27a13.08,13.08,0,0,0-.92-3.67,5.17,5.17,0,0,0-2.08-2.61,7.71,7.71,0,0,0-4-.88,6.27,6.27,0,0,0-3.78,1,6,6,0,0,0-2.15,2.68,13.81,13.81,0,0,0-.85,3.6q-.2,2-.2,4.13a37,37,0,0,0,.2,3.88,13.94,13.94,0,0,0,.85,3.7,6,6,0,0,0,2.15,2.68A6.12,6.12,0,0,0,698.77,906Z"/>
    <path class="cls-5" d="M727.4,897.37q0,4.4,2.45,6.69a8,8,0,0,0,6,2.32,10.47,10.47,0,0,0,7.73-3.55l5.15,4.54q-5.41,6-12.73,5.9a17.88,17.88,0,0,1-5.45-.84,13,13,0,0,1-2.59-1.23,12.47,12.47,0,0,1-2.49-1.65,14.52,14.52,0,0,1-3.64-5.7,23.11,23.11,0,0,1-1.53-9.14,26.17,26.17,0,0,1,1.33-9,15.75,15.75,0,0,1,3.4-5.77,12.64,12.64,0,0,1,4.73-3.09,14.75,14.75,0,0,1,5.11-.95A14.45,14.45,0,0,1,745.12,880q4.25,4.11,4.32,11.32v6Zm14.95-6q-.14-4.28-2.22-6.46a7.66,7.66,0,0,0-10.51,0q-2,2.19-2.22,6.46Z"/>
    <path class="cls-5" d="M758.07,876.35h7.09v3.87h.15a11.63,11.63,0,0,1,16.62-1.52L776.75,885a7.32,7.32,0,0,0-4.67-1.83,6.57,6.57,0,0,0-4.67,1.83q-2.18,1.8-2.25,5.81v22h-7.09Z"/>
    <path class="cls-5" d="M781.48,918.26h34.87v3.58H781.48Z"/>
  </g>
</svg>
