<svg xmlns="http://www.w3.org/2000/svg" viewBox="0 0 44.75 54.25">
  <defs>
    <style>
      .cls-1 {
        fill: #fff;
      }
    </style>
  </defs>
  <title>icon_land</title>
  <g id="圖層_2" data-name="圖層 2">
    <g id="圖層_1-2" data-name="圖層 1">
      <g>
        <path class="cls-1" d="M32.54.05,1.78,6.83A2.26,2.26,0,0,0,.05,9.53L9.51,52.48a2.26,2.26,0,0,0,2.7,1.72L43,47.42a2.26,2.26,0,0,0,1.72-2.7L35.24,1.78A2.26,2.26,0,0,0,32.54.05Zm-1.08,19.6a10.43,10.43,0,0,1-.13,5v.05a10.47,10.47,0,0,1-.44,1.26L25.5,41.35,14.27,29.73l-.41-.38a10.49,10.49,0,1,1,17.6-9.73h0Z"/>
        <path class="cls-1" d="M26.68,20.68A5.59,5.59,0,1,1,20,16.42,5.59,5.59,0,0,1,26.68,20.68Z"/>
      </g>
    </g>
  </g>
</svg>
