<svg id="圖層_1" data-name="圖層 1" xmlns="http://www.w3.org/2000/svg" viewBox="0 0 200 200">
  <defs>
    <style>
      .cls-1 {
        fill: #fff;
      }
    </style>
  </defs>
  <title>1</title>
  <g>
    <path class="cls-1" d="M99.75,111.38c-16,0-31.38-3.71-43.17-10.45-14.4-8.23-22.65-20.64-22.65-34s8.26-25.81,22.65-34C68.37,26.11,83.7,22.39,99.75,22.39s31.38,3.71,43.17,10.45c14.4,8.23,22.65,20.64,22.65,34s-8.26,25.81-22.65,34C131.13,107.67,115.8,111.38,99.75,111.38Zm0-57c-22.93,0-33.8,10-33.8,12.47s10.87,12.47,33.8,12.47,33.8-10,33.8-12.47S122.67,54.42,99.75,54.42Z"/>
    <g>
      <path class="cls-1" d="M186.42,94.18c-5.61-5.94-10.3,2.78-14.9,9-6.1,8.19-20.33,17.43-34.19,20a68.78,68.78,0,0,1-25.33,0c2.81,15.08-5.23,21.77-5.23,21.77a72.18,72.18,0,0,0,28,27.87c10.87,5.9,17.88,4.54,23.83,1.92S163.22,162,163.22,162s8.44-.44,12.79-6.1-1.31-14.81-1.31-14.81,9.15-2.18,10-10.48-3-12.17-3-12.17S194.21,102.43,186.42,94.18Z"/>
      <path class="cls-1" d="M87.5,123.2a68.78,68.78,0,0,1-25.33,0c-13.86-2.61-28.09-11.86-34.19-20-4.6-6.18-9.29-14.9-14.9-9-7.79,8.24,4.75,24.22,4.75,24.22s-3.86,3.87-3,12.17,10,10.48,10,10.48-5.66,9.15-1.31,14.81S36.28,162,36.28,162s-1.27,10.2,4.67,12.81,13,4,23.83-1.92a72.18,72.18,0,0,0,28-27.87S84.69,138.28,87.5,123.2Z"/>
    </g>
  </g>
</svg>
