<svg id="圖層_1" data-name="圖層 1" xmlns="http://www.w3.org/2000/svg" viewBox="0 0 200 200">
  <defs>
    <style>
      .cls-1 {
        fill: #fff;
      }
    </style>
  </defs>
  <title>1</title>
  <g>
    <path class="cls-1" d="M134.21,8.72,30.3,31.61a7.65,7.65,0,0,0-5.82,9.11l31.94,145a7.65,7.65,0,0,0,9.11,5.82l103.91-22.88a7.65,7.65,0,0,0,5.82-9.11l-31.94-145A7.65,7.65,0,0,0,134.21,8.72ZM130.57,74.9a35.23,35.23,0,0,1-.43,16.77v.06l0,.12a35.36,35.36,0,0,1-1.48,4.25l-18.18,52.08L72.49,108.95c-.47-.41-.93-.83-1.37-1.27a35.42,35.42,0,1,1,59.44-32.86h0Z"/>
    <path class="cls-1" d="M114.41,78.37A18.89,18.89,0,1,1,91.91,64,18.89,18.89,0,0,1,114.41,78.37Z"/>
  </g>
</svg>
