<svg xmlns="http://www.w3.org/2000/svg" viewBox="0 0 54.09 46.87">
  <defs>
    <style>
      .cls-1 {
        fill: #fff;
      }
    </style>
  </defs>
  <title>icon_angel</title>
  <g id="圖層_2" data-name="圖層 2">
    <g id="圖層_1-2" data-name="圖層 1">
      <g>
        <path class="cls-1" d="M27,27A26.77,26.77,0,0,1,14,23.8c-4.36-2.5-6.87-6.26-6.87-10.32S9.6,5.66,14,3.17A26.77,26.77,0,0,1,27,0,26.77,26.77,0,0,1,40.13,3.17C44.49,5.66,47,9.42,47,13.49s-2.5,7.82-6.87,10.32A26.77,26.77,0,0,1,27,27ZM27,9.71c-6.95,0-10.24,3-10.24,3.78S20.1,17.27,27,17.27s10.24-3,10.24-3.78S34,9.71,27,9.71Z"/>
        <g>
          <path class="cls-1" d="M53.32,21.76c-1.7-1.8-3.12.84-4.52,2.72a18.57,18.57,0,0,1-10.36,6.08,20.85,20.85,0,0,1-7.68,0c.85,4.57-1.58,6.6-1.58,6.6a21.88,21.88,0,0,0,8.47,8.45c3.3,1.79,5.42,1.38,7.22.58s1.42-3.88,1.42-3.88a5.79,5.79,0,0,0,3.88-1.85c1.32-1.72-.4-4.49-.4-4.49s2.77-.66,3-3.18a4.64,4.64,0,0,0-.91-3.69S55.68,24.26,53.32,21.76Z"/>
          <path class="cls-1" d="M23.33,30.56a20.85,20.85,0,0,1-7.68,0A18.57,18.57,0,0,1,5.29,24.48C3.9,22.61,2.47,20,.77,21.76c-2.36,2.5,1.44,7.34,1.44,7.34a4.64,4.64,0,0,0-.91,3.69c.25,2.52,3,3.18,3,3.18s-1.72,2.77-.4,4.49A5.79,5.79,0,0,0,7.81,42.3s-.39,3.09,1.42,3.88,3.93,1.21,7.22-.58a21.88,21.88,0,0,0,8.47-8.45S22.48,35.13,23.33,30.56Z"/>
        </g>
      </g>
    </g>
  </g>
</svg>
