<svg xmlns="http://www.w3.org/2000/svg" viewBox="0 0 459 510">
  <defs>
    <style>
      .cls-1 {
        fill: #fff;
      }
    </style>
  </defs>
  <title>icon_hackmd</title>
  <g id="圖層_2" data-name="圖層 2">
    <g id="圖層_1-2" data-name="圖層 1">
      <path class="cls-1" d="M403.4,45A10.74,10.74,0,0,1,414,55.6V454.4A10.74,10.74,0,0,1,403.4,465H55.6A10.74,10.74,0,0,1,45,454.4V55.6A10.74,10.74,0,0,1,55.6,45H403.4m0-45H55.6A55.76,55.76,0,0,0,0,55.6V454.4A55.76,55.76,0,0,0,55.6,510H403.4A55.76,55.76,0,0,0,459,454.4V55.6A55.76,55.76,0,0,0,403.4,0Z"/>
      <path class="cls-1" d="M83,108H189.82c9.42,0,18.44-8.28,18-18s-7.91-18-18-18H83c-9.42,0-18.44,8.28-18,18s7.91,18,18,18Z"/>
      <path class="cls-1" d="M80.89,192H380c9.42,0,18.44-8.28,18-18s-7.91-18-18-18H80.89c-9.42,0-18.44,8.28-18,18s7.91,18,18,18Z"/>
      <path class="cls-1" d="M80.89,284H380c9.42,0,18.44-8.28,18-18s-7.91-18-18-18H80.89c-9.42,0-18.44,8.28-18,18s7.91,18,18,18Z"/>
      <rect class="cls-1" x="220" y="329" width="170" height="101" rx="12" ry="12"/>
      <path class="cls-1" d="M81.78,368h99.7c9.42,0,18.44-8.28,18-18s-7.91-18-18-18H81.78c-9.42,0-18.44,8.28-18,18s7.91,18,18,18Z"/>
      <circle class="cls-1" cx="273" cy="89" r="21"/>
      <circle class="cls-1" cx="342" cy="90" r="21"/>
    </g>
  </g>
</svg>
