<svg xmlns="http://www.w3.org/2000/svg" viewBox="0 0 670 612">
  <defs>
    <style>
      .cls-1 {
        fill: none;
        stroke: #fff;
        stroke-miterlimit: 10;
        stroke-width: 45px;
      }

      .cls-2 {
        fill: #fff;
      }
    </style>
  </defs>
  <title>icon_broadcast_1</title>
  <g id="圖層_2" data-name="圖層 2">
    <g id="圖層_1-2" data-name="圖層 1">
      <g>
        <rect class="cls-1" x="22.5" y="22.5" width="625" height="567" rx="37.42" ry="37.42"/>
        <g>
          <polygon class="cls-2" points="188 172 188 439.85 482.5 305.92 188 172"/>
          <path class="cls-2" d="M158,172V439.85a30.23,30.23,0,0,0,14.86,25.9c10,5.84,20.24,4.57,30.28,0L303,420.35l158.12-71.9,36.54-16.62c19.63-8.93,19.63-42.88,0-51.81l-99.84-45.4-158.12-71.9L203.14,146.1c-7.55-3.43-14.82-5.31-23.12-3-7,1.92-14.5,7.3-17.93,13.79-7,13.16-4.49,34.11,10.76,41l99.84,45.4,158.12,71.9,36.54,16.62V280l-99.84,45.4L209.4,397.33l-36.54,16.62L218,439.85V172c0-15.69-13.8-30.73-30-30S158,155.18,158,172Z"/>
        </g>
        <circle class="cls-2" cx="547.5" cy="107.5" r="31"/>
        <g>
          <path class="cls-2" d="M523.24,195.3l-6-12.72h-2.83V195.3H506V161.12h13.54a12.64,12.64,0,0,1,5,.94,11.16,11.16,0,0,1,3.67,2.47,10.17,10.17,0,0,1,2.23,3.5,11.45,11.45,0,0,1,.74,4.08,10,10,0,0,1-.48,3.17,9.49,9.49,0,0,1-1.27,2.54,9.21,9.21,0,0,1-1.8,1.9,13.14,13.14,0,0,1-2,1.32L533,195.3Zm-.48-23.18a3.45,3.45,0,0,0-3.65-3.46h-4.75v6.91h4.75a3.45,3.45,0,0,0,3.65-3.46Z"/>
          <path class="cls-2" d="M537.25,195.3V161.12h23.23v7.49H545.65v5.71h12.67v7.49H545.65v6h14.83v7.49Z"/>
          <path class="cls-2" d="M585.92,193.36a11.68,11.68,0,0,1-2.09,1.2,11.37,11.37,0,0,1-2.5.77,16.17,16.17,0,0,1-3,.26,13.46,13.46,0,0,1-5.33-1,13.23,13.23,0,0,1-4.18-2.86,10.07,10.07,0,0,1-2.06-2.9,13.53,13.53,0,0,1-1-3.29,21.64,21.64,0,0,1-.34-3.58q0-1.85,0-3.77t0-3.77a21.65,21.65,0,0,1,.34-3.58,13.55,13.55,0,0,1,1-3.29,10.1,10.1,0,0,1,2.06-2.9,13.23,13.23,0,0,1,4.18-2.86,13.47,13.47,0,0,1,5.33-1,16.21,16.21,0,0,1,3,.26,11.43,11.43,0,0,1,2.5.77,11.71,11.71,0,0,1,2.09,1.2,15.15,15.15,0,0,1,1.82,1.56l-5.57,5.57a10.18,10.18,0,0,0-1.63-1.34,4.14,4.14,0,0,0-2.26-.53,4.37,4.37,0,0,0-2,.41,3.67,3.67,0,0,0-1.3,1,5.75,5.75,0,0,0-.53.86,5.42,5.42,0,0,0-.41,1.39,21.08,21.08,0,0,0-.26,2.38q-.1,1.46-.1,3.82t.1,3.82a21.05,21.05,0,0,0,.26,2.38,5.41,5.41,0,0,0,.41,1.39,5.65,5.65,0,0,0,.53.86,3.65,3.65,0,0,0,1.3,1,4.36,4.36,0,0,0,2,.41,4.13,4.13,0,0,0,2.26-.53,10.1,10.1,0,0,0,1.63-1.34l5.57,5.57A15.15,15.15,0,0,1,585.92,193.36Z"/>
        </g>
      </g>
    </g>
  </g>
</svg>
