<svg xmlns="http://www.w3.org/2000/svg" viewBox="0 0 432.35 301.29">
  <defs>
    <style>
      .cls-1 {
        fill: #64757e;
      }

      .cls-2 {
        fill: #fcfcfc;
      }
    </style>
  </defs>
  <title>Meow</title>
  <g id="圖層_2" data-name="圖層 2">
    <g id="圖層_1-2" data-name="圖層 1">
      <polygon class="cls-1" points="354.58 81.7 354.58 0 0 0 0 81.7 0 163.4 0 245.1 177.63 245.1 177.63 163.4 432.35 163.4 432.35 81.7 354.58 81.7"/>
      <g>
        <path class="cls-1" d="M34.39,274.28v17.53H30v-1.76H22.06v11H17.63v-11H9.73V292H5.52v-17.7H17.63V268.2h4.43v6.08ZM17.63,285.94v-7.55H9.73v7.55Zm12.36,0v-7.55H22.06v7.55Z"/>
        <path class="cls-1" d="M71.66,284.29v4.11H57c-1.69,5.23-5.76,9.91-15,12.54a15.47,15.47,0,0,0-2.28-3.65c7.17-2,10.78-5.23,12.61-8.89H39.91v-4.11h3.65V272.73H53.92v-4.57h4.25v4.57H68.29v11.56Zm-18.09,0a25.6,25.6,0,0,0,.35-4.6v-2.84H47.81v7.45ZM59.16,289c3.79,2.46,9.52,6.18,12.33,8.54L68.43,301c-2.56-2.46-8.11-6.36-12.12-9.06Zm-1-9.31a33.68,33.68,0,0,1-.28,4.6h6v-7.45H58.17Z"/>
        <path class="cls-1" d="M83.22,273.65a52.45,52.45,0,0,1-1.86,7h6.57v16.16H81.22v2.56H77.74V288.43c-.46.67-.95,1.33-1.44,1.93a23.19,23.19,0,0,0-1.41-5c2.14-2.88,3.58-7.13,4.46-11.73H75.64v-3.79H88.39v3.79Zm1.16,10.68H81.22v8.78h3.16Zm23.6,2.11H104.3V301h-4V286.43h-4c-.21,5.16-1.23,11-4.85,14.86a16.78,16.78,0,0,0-3.16-2.42c3-3.27,3.9-8.15,4.11-12.43H89.16V282.5H92.5v-8.68H90.07V270h17.21v3.86h-3v8.68H108Zm-7.66-3.93v-8.68H96.39v8.68Z"/>
        <path class="cls-1" d="M139.11,296.3c.81,0,.95-.63,1.09-5a13,13,0,0,0,3.93,1.79c-.42,5.76-1.51,7.31-4.57,7.31H136.3c-3.44,0-4.53-1.23-4.53-5.34v-4.53h-4.6c-.88,4.11-3.93,8.36-13,10.71a20.23,20.23,0,0,0-3-3.58c7.27-1.83,10.22-4.46,11.28-7.13h-8.61v-3.86h9.2v-3.86h4.43v3.86h8.68V295c0,1.12.14,1.26.95,1.26Zm-22.48-17.84h-4.21v-7.17h12.82c-.25-.88-.49-1.76-.74-2.49l4.39-.7c.35,1,.77,2.14,1.09,3.2h12.79v6.85h-4.39v-3.09h-5v4.5c0,.91.14,1.3,1.05,1.3h4.25a13.31,13.31,0,0,0,3.06-.28c.11,1.12.21,2.53.35,3.51a13.57,13.57,0,0,1-3.23.28h-4.74c-4,0-4.92-1.41-4.92-4.85v-4.46h-3.62c-.67,5-2.67,8-10.71,9.66a10.06,10.06,0,0,0-2.18-3.41c6.64-1.09,8-3,8.54-6.25h-4.64Z"/>
        <path class="cls-1" d="M159.24,271c-.91,3-2.07,6.46-3.06,9.2a11.44,11.44,0,0,1,2.56,7.27c0,2.28-.46,3.79-1.58,4.64a4.28,4.28,0,0,1-2,.77,11.62,11.62,0,0,1-2.25.07,8.45,8.45,0,0,0-.91-3.58,11.52,11.52,0,0,0,1.51,0,1.51,1.51,0,0,0,.95-.28,2.7,2.7,0,0,0,.6-2.11,10,10,0,0,0-2.42-6.43c.7-2.11,1.41-5,2-7.27H151.8V300.9h-3.65V269.57h7.76l.6-.18Zm16.47,26c.53,0,.7-.6.77-4.18a10.37,10.37,0,0,0,3.41,1.54c-.32,4.81-1.3,6.15-3.76,6.15h-2.42c-3.09,0-3.79-1.19-3.79-4.67v-7.17H167.6c-.53,5.9-2.14,10-9,12.33a10.92,10.92,0,0,0-2.32-3.37c5.58-1.72,6.85-4.57,7.27-9h-4.21V285h20v3.72h-5.51v7.2c0,1,.07,1.12.56,1.12ZM162,279.23h-2.74v-6.92h8.15A25.93,25.93,0,0,0,166,269l4-1.12a22.42,22.42,0,0,1,2,4.46h7.27v6.92h-2.77v3.13H162Zm1.12-3.34v2.84h12.08v-2.84Z"/>
        <path class="cls-1" d="M201.15,268.24c0,1.48-.11,3.37-.25,5.48.49,4.74,2.63,18,14.89,23.39a11.16,11.16,0,0,0-3.06,3.62C204.94,297,201,290.16,199,284.11a28.61,28.61,0,0,1-12.93,16.83,13.41,13.41,0,0,0-3.48-3.41c14.26-7.62,13.59-23.36,13.73-29.29Z"/>
        <path class="cls-1" d="M245.59,278.18a36.85,36.85,0,0,1-7.24,12.57,34,34,0,0,0,13.28,6.08,19.26,19.26,0,0,0-2.81,3.9,35.13,35.13,0,0,1-13.73-6.88,38.92,38.92,0,0,1-14.23,7.09,21,21,0,0,0-2.53-3.9A36.08,36.08,0,0,0,232,290.82a39.42,39.42,0,0,1-7.48-12.64H219V274.1h14.82a26.8,26.8,0,0,0-2-5l4.46-1.3a30,30,0,0,1,2.39,5.3l-3,.95H251v4.08Zm-16.75,0a30.23,30.23,0,0,0,6.32,9.73,28.32,28.32,0,0,0,5.73-9.73Z"/>
        <path class="cls-1" d="M266.07,290.72c-.6-.91-1.58-2.21-2.56-3.41V301H259.4V288.08a26,26,0,0,1-4,3.09,20.63,20.63,0,0,0-1.58-4.25,24.65,24.65,0,0,0,9-9.1h-8v-3.76H261a23.41,23.41,0,0,0-2.84-4.32l3.3-1.72a22.43,22.43,0,0,1,3.2,4.43l-2.78,1.62h3.27l.7-.18,2.21,1.62a33.24,33.24,0,0,1-4,7.34c1.44,1.26,4,3.72,4.67,4.39Zm21,5.06v4.14H266.85v-4.14h8.46v-13h-6.92v-4h6.92V268.41h4.32V278.7h6.64v4h-6.64v13Z"/>
        <path class="cls-1" d="M309.56,269.22c-.18.21-.35.46-.53.67,3.23,2.81,9,5.23,14.58,6.32a14.37,14.37,0,0,0-2.63,3.2c-.7-.17-1.44-.42-2.18-.63v9.06H294.39V279c-.74.25-1.47.49-2.18.67a22.32,22.32,0,0,0-2.25-3.23c6.46-1.51,12.72-4.43,15.91-8.5Zm8,9.1a38.61,38.61,0,0,1-4.78-2.14v.91H300.43v-.7a42.23,42.23,0,0,1-4.25,1.93ZM296.35,289H317v11.87h-4.29V300H300.47V301h-4.11Zm4-3.69a13.87,13.87,0,0,0-1.19-3.65l2.71-.77h-4v4.43Zm.14,6.43v1.4h12.26v-1.4Zm12.26,5.55v-1.41H300.47v1.41Zm-8-16.4H302a15.88,15.88,0,0,1,1.41,3.72l-2.25.7h3.58Zm5.06-6.5a34.27,34.27,0,0,1-3-2.28c-.91.77-1.93,1.55-3,2.28Zm-1.69,6.5v4.43h3.27l-2.11-.6a27.46,27.46,0,0,0,1.37-3.83Zm7,0h-3.65l2.74.67c-.7,1.4-1.37,2.77-1.93,3.76h2.85Z"/>
        <path class="cls-1" d="M337.56,290.61a38.11,38.11,0,0,0-2.11-3.86V301h-4V288.36a32.72,32.72,0,0,1-3.83,7,23,23,0,0,0-1.93-4,32.93,32.93,0,0,0,5.2-9.41h-4.74V278h5.3v-4c-1.37.21-2.67.42-4,.56a12.66,12.66,0,0,0-1.12-3.23,53.61,53.61,0,0,0,11.31-2.88l2.35,3.41a31.33,31.33,0,0,1-4.53,1.3V278h4.64v3.9h-4.64v.28c1,1,3.9,4.29,4.57,5.09Zm17.32,1.51V301h-4.11v-8.11l-10.61,1.83-.67-4,11.28-1.93V268.2h4.11v19.88l3.48-.6.67,3.9Zm-8.82-4.88a31.65,31.65,0,0,0-5.58-5.37l2.67-2.39a31,31,0,0,1,5.76,5.09ZM347,278a26.35,26.35,0,0,0-5.23-5.27l2.74-2.39a28,28,0,0,1,5.41,5.06Z"/>
        <path class="cls-1" d="M394.08,294.58H380.67v2.53c0,1.86-.42,2.77-1.86,3.34a20.12,20.12,0,0,1-6,.53,13.53,13.53,0,0,0-1.26-3.51c1.65.07,3.76.07,4.29,0s.74-.11.74-.53v-2.39H362.33v-3.3h14.23v-1a25.63,25.63,0,0,0,3.86-2H369.14v-2.92h15.28l.88-.21,2.35,2.14a49.23,49.23,0,0,1-6.71,4h13.14ZM366.93,288h-4v-7.2h2.63L365,270.35a48.82,48.82,0,0,0,7.1-2l1.69,2.42a33.47,33.47,0,0,1-4.78,1.33l.07,1h4.46v2.6h-4.32l.07,1.19h4.32v1.79A27.37,27.37,0,0,0,376,277.4c-.67-.42-1.33-.81-2-1.16L376,274.6c.7.35,1.44.77,2.18,1.19a13.5,13.5,0,0,0,1.41-1.48l2.74.81a14.76,14.76,0,0,1-1.86,2.11,14.24,14.24,0,0,1,2.11,1.62l-2.07,1.83a23.36,23.36,0,0,0-2-1.72,25.77,25.77,0,0,1-2.84,1.83H387l.14-1.23H383v-2.6h4.39l.07-1.19h-4.29v-2.6h4.46l.07-1.16h-4.74v-2.63h8.82c-.18,3.69-.42,8.15-.74,11.42h2.6V288h-4.15V283.8H366.93Zm2.53-7.2h5.69a22.6,22.6,0,0,0-1.58-1.62v.39h-4.18Zm10.89-6.46a18.18,18.18,0,0,0-1.83-1.48,17.82,17.82,0,0,1-2.84,1.76,19.51,19.51,0,0,0-2.18-1.86,16,16,0,0,0,2.67-1.37c-.67-.39-1.26-.74-1.9-1.05l1.86-1.62c.67.32,1.41.7,2.14,1.12a11.62,11.62,0,0,0,1.26-1.41l2.74.81a12.89,12.89,0,0,1-1.76,1.93c.7.49,1.33,1,1.83,1.41Z"/>
        <path class="cls-1" d="M416.85,287.31v2.11h11.8v11.45H425v-1.09h-8.11V301H413.2V278.53H411.4V273l-1.33,2.49a54.3,54.3,0,0,0-5-2.74c-.56.67-1.16,1.37-1.79,2h5.44v2.74h-6.18v-2a29.25,29.25,0,0,1-3.55,2.84,30.24,30.24,0,0,0-1.62-3.76,20.29,20.29,0,0,0,7-6.88l3.27,1.19c-.18.35-.39.67-.6,1,1.58.7,3.41,1.58,4.5,2.21h7.59c-.42-.95-.95-2-1.41-2.85l3.69-1.47c.67,1.16,1.54,2.7,2,3.76l-1.19.56H430v6.36h-2.88v8.78Zm-8.64,4.36c1.16,2.18,2.67,5.09,3.37,6.85l-3,1.51c-.25-.7-.6-1.54-1-2.49-6.25,2.32-7.34,2.81-8.08,3.41a11.13,11.13,0,0,0-1.33-3.44,2.12,2.12,0,0,0,1.4-2.11V278.81h10.82v12.58h-7.27v4.32l3.13-1.05c-.28-.63-.6-1.23-.88-1.76Zm-5.09-9.84v1.79h3.62v-1.79Zm3.62,6.57v-1.9h-3.62v1.9Zm8.11-12.93v2.21H426.4v-2.21Zm8.71,5.51h-6.71v3h6.71Zm-6.71,11.87v3.41H425v-3.41Z"/>
      </g>
      <g>
        <path class="cls-2" d="M51.8,55.84A13.6,13.6,0,0,1,48,60.59a17.12,17.12,0,0,1-5.83,3,25.9,25.9,0,0,1-7.42,1A30.76,30.76,0,0,1,24.58,63a20.85,20.85,0,0,1-8-5.26l5.18-5.11a15.23,15.23,0,0,0,6,3.85,22.69,22.69,0,0,0,7.13,1q5,0,7.81-2.05a6.79,6.79,0,0,0,2.77-5.8,6.77,6.77,0,0,0-2-5.33A6.58,6.58,0,0,0,41.29,43a18.81,18.81,0,0,0-3.46-.79l-6-.86q-6.26-.86-9.72-4.1-3.74-3.53-3.74-9.79a15.29,15.29,0,0,1,1.19-6.08,13.8,13.8,0,0,1,3.38-4.79,14.93,14.93,0,0,1,5.36-3.1,22.26,22.26,0,0,1,7.2-1.08,25.84,25.84,0,0,1,8.86,1.37,20.82,20.82,0,0,1,7.06,4.46l-5,4.9A12.55,12.55,0,0,0,41.25,20a20.94,20.94,0,0,0-6-.83q-4.54,0-6.95,2.27a7.52,7.52,0,0,0-2.41,5.72,7.1,7.1,0,0,0,.47,2.63,5.76,5.76,0,0,0,1.48,2.12,11,11,0,0,0,5.76,2.38l5.83.86a26.17,26.17,0,0,1,5.76,1.48A14,14,0,0,1,49,39a11.79,11.79,0,0,1,3.13,4.54,16.28,16.28,0,0,1,1,6A14.29,14.29,0,0,1,51.8,55.84Z"/>
        <path class="cls-2" d="M82.4,64.12V60.81a12.6,12.6,0,0,1-4.18,2.88,15.11,15.11,0,0,1-5.54.86,17.54,17.54,0,0,1-5.8-.83,10.52,10.52,0,0,1-4-2.48A10.91,10.91,0,0,1,60,53.39a9.93,9.93,0,0,1,3.13-7.56q3.13-3,9.47-3h9.65V40.29a6.67,6.67,0,0,0-1.84-5.15q-1.84-1.69-6.16-1.69a11.65,11.65,0,0,0-4.75.79A8.9,8.9,0,0,0,66.27,37l-4.82-4.54A13.83,13.83,0,0,1,67,28.3a21.74,21.74,0,0,1,7.52-1.12q15,0,15,12.53V64.12ZM82.25,48H73.69a7.54,7.54,0,0,0-4.9,1.37,4.76,4.76,0,0,0-1.66,3.89,4.7,4.7,0,0,0,1.62,3.85q1.62,1.33,5.08,1.33a19.63,19.63,0,0,0,3.74-.32,6,6,0,0,0,3.1-1.76q1.58-1.58,1.58-5.4Z"/>
        <path class="cls-2" d="M111.77,64.12a10.57,10.57,0,0,1-4.46-.86,9.1,9.1,0,0,1-3.1-2.27,9.38,9.38,0,0,1-1.84-3.24,11.87,11.87,0,0,1-.61-3.78V33.88H97.59V28.26h4.18V17.18h7.34V28.26h7.06v5.62h-7.06V53.61a4.62,4.62,0,0,0,1,3.13,3.85,3.85,0,0,0,3.06,1.12h3v6.26Z"/>
        <path class="cls-2" d="M147.56,64.12V60.45a11.59,11.59,0,0,1-4.43,3.1,14.85,14.85,0,0,1-10.37.14,11.55,11.55,0,0,1-3.92-2.45A11.23,11.23,0,0,1,126,56.6a19,19,0,0,1-.79-5.65V27.62h7.34V49.87q0,4.25,2.12,6.19A7.44,7.44,0,0,0,139.85,58a9.15,9.15,0,0,0,2.92-.47,6.07,6.07,0,0,0,2.41-1.48,7.42,7.42,0,0,0,1.62-2.56,9.87,9.87,0,0,0,.61-3.64V27.62h7.34v36.5Z"/>
        <path class="cls-2" d="M186.51,36.19a9.93,9.93,0,0,0-2.41-1.84,6.68,6.68,0,0,0-3.06-.61,6.9,6.9,0,0,0-5.15,2.2,8.29,8.29,0,0,0-2.12,6V64.12h-7.34V27.62h7.2v4a10.42,10.42,0,0,1,4-3.17,13.15,13.15,0,0,1,5.69-1.22,13.33,13.33,0,0,1,4.75.79,11.33,11.33,0,0,1,4,2.66Z"/>
        <path class="cls-2" d="M216.68,64.12V60.23a11.17,11.17,0,0,1-4.36,3.42,14.3,14.3,0,0,1-5.29.9,14.56,14.56,0,0,1-5.08-.86,10.5,10.5,0,0,1-3.85-2.38,10.85,10.85,0,0,1-2.2-3.17,18.12,18.12,0,0,1-1.26-3.85,27,27,0,0,1-.54-4.21q-.11-2.16-.11-4.25t.11-4.25a26.17,26.17,0,0,1,.54-4.18,18.3,18.3,0,0,1,1.26-3.82,10.87,10.87,0,0,1,2.2-3.17A10.53,10.53,0,0,1,201.92,28a14.23,14.23,0,0,1,5-.86,14.91,14.91,0,0,1,5.26.86,10.68,10.68,0,0,1,4.32,3.24V12.86h7.34V64.12Zm-.4-22.93a12.08,12.08,0,0,0-1-3.85,6.29,6.29,0,0,0-2.3-2.63,8.63,8.63,0,0,0-8,0,6.62,6.62,0,0,0-2.3,2.63,11.46,11.46,0,0,0-1.08,3.85,42.93,42.93,0,0,0,0,9.29,11.82,11.82,0,0,0,1.08,3.89A6.56,6.56,0,0,0,205,57a8.63,8.63,0,0,0,8,0,6.24,6.24,0,0,0,2.3-2.66,12.46,12.46,0,0,0,1-3.89,42.93,42.93,0,0,0,0-9.29Z"/>
        <path class="cls-2" d="M255.2,64.12V60.81A12.6,12.6,0,0,1,251,63.69a15.11,15.11,0,0,1-5.54.86,17.54,17.54,0,0,1-5.8-.83,10.52,10.52,0,0,1-4-2.48,10.91,10.91,0,0,1-2.88-7.85,9.93,9.93,0,0,1,3.13-7.56q3.13-3,9.47-3h9.65V40.29a6.67,6.67,0,0,0-1.84-5.15q-1.84-1.69-6.16-1.69a11.65,11.65,0,0,0-4.75.79A8.9,8.9,0,0,0,239.07,37l-4.82-4.54a13.83,13.83,0,0,1,5.58-4.14,21.74,21.74,0,0,1,7.52-1.12q15,0,15,12.53V64.12ZM255.05,48h-8.57a7.54,7.54,0,0,0-4.9,1.37,4.76,4.76,0,0,0-1.66,3.89,4.7,4.7,0,0,0,1.62,3.85q1.62,1.33,5.08,1.33a19.63,19.63,0,0,0,3.74-.32,6,6,0,0,0,3.1-1.76q1.58-1.58,1.58-5.4Z"/>
        <path class="cls-2" d="M285.15,71.39a11.86,11.86,0,0,1-2.66,4.54A8.08,8.08,0,0,1,279,78a14.16,14.16,0,0,1-4,.58h-3V72h1.87a5.56,5.56,0,0,0,3.38-.83,6.58,6.58,0,0,0,1.87-3.07l2-5.7L268.45,27.62h7.78l8.71,25.7,8.5-25.7h7.85Z"/>
        <path class="cls-2" d="M32.65,150.52V107.25l-10,8.78V107.9l10-8.64H40v51.26Z"/>
        <path class="cls-2" d="M85.6,142.42A14,14,0,0,1,82.4,147a13.79,13.79,0,0,1-4.72,2.92,16.76,16.76,0,0,1-11.45,0A13.79,13.79,0,0,1,61.52,147a13.59,13.59,0,0,1-3.17-4.61,15.55,15.55,0,0,1-1.15-6.16V113.51a15.55,15.55,0,0,1,1.15-6.16,13.6,13.6,0,0,1,3.17-4.61,13.84,13.84,0,0,1,4.72-2.92,16.76,16.76,0,0,1,11.45,0,13.84,13.84,0,0,1,4.72,2.92,14.06,14.06,0,0,1,3.2,4.61,15.15,15.15,0,0,1,1.19,6.16v22.75A15.15,15.15,0,0,1,85.6,142.42Zm-6.16-28.69a9,9,0,0,0-2-6,6.88,6.88,0,0,0-5.51-2.3,6.77,6.77,0,0,0-5.47,2.3,9.06,9.06,0,0,0-1.94,6v22.32a9.06,9.06,0,0,0,1.94,6A6.77,6.77,0,0,0,72,144.4a6.88,6.88,0,0,0,5.51-2.3,9,9,0,0,0,2-6Z"/>
        <path class="cls-2" d="M107.89,150.52a10.57,10.57,0,0,1-4.46-.86,9.1,9.1,0,0,1-3.1-2.27,9.38,9.38,0,0,1-1.84-3.24,11.87,11.87,0,0,1-.61-3.78V120.28H93.7v-5.62h4.18V103.58h7.34v11.09h7.06v5.62h-7.06V140a4.62,4.62,0,0,0,1,3.13,3.85,3.85,0,0,0,3.06,1.12h3v6.26Z"/>
        <path class="cls-2" d="M143.74,150.52V128.13q0-4.17-2.12-6.08a8.09,8.09,0,0,0-10.48,0q-2.16,1.95-2.16,6v22.39h-7.34V99.26H129v18.43a11.88,11.88,0,0,1,4.28-3.1,13.21,13.21,0,0,1,5.15-1,14.15,14.15,0,0,1,5.4,1,11,11,0,0,1,4,2.74,11.64,11.64,0,0,1,2.45,4.25,17.14,17.14,0,0,1,.83,5.44v23.54Z"/>
        <path class="cls-2" d="M218,150.52V116.25l-11.81,25H200.4l-12.1-25v34.27h-7.78V99.26h7.78l15,31.9L218,99.26h7.78v51.26Z"/>
        <path class="cls-2" d="M257.86,150.52v-3.31a12.6,12.6,0,0,1-4.18,2.88,15.11,15.11,0,0,1-5.54.86,17.54,17.54,0,0,1-5.8-.83,10.52,10.52,0,0,1-4-2.48,10.91,10.91,0,0,1-2.88-7.85,9.93,9.93,0,0,1,3.13-7.56q3.13-3,9.47-3h9.65v-2.59a6.67,6.67,0,0,0-1.84-5.15q-1.84-1.69-6.16-1.69a11.65,11.65,0,0,0-4.75.79,8.9,8.9,0,0,0-3.24,2.74l-4.82-4.54a13.83,13.83,0,0,1,5.58-4.14,21.74,21.74,0,0,1,7.52-1.12q15,0,15,12.53v24.41Zm-.14-16.13h-8.57a7.54,7.54,0,0,0-4.9,1.37,4.76,4.76,0,0,0-1.66,3.89,4.7,4.7,0,0,0,1.62,3.85q1.62,1.33,5.08,1.33a19.63,19.63,0,0,0,3.74-.32,6,6,0,0,0,3.1-1.76q1.58-1.58,1.58-5.4Z"/>
        <path class="cls-2" d="M296.45,122.59a9.93,9.93,0,0,0-2.41-1.84,6.68,6.68,0,0,0-3.06-.61,6.9,6.9,0,0,0-5.15,2.2,8.29,8.29,0,0,0-2.12,6v22.18h-7.34V114h7.2v4a10.42,10.42,0,0,1,4-3.17,13.15,13.15,0,0,1,5.69-1.22,13.33,13.33,0,0,1,4.75.79,11.33,11.33,0,0,1,4,2.66Z"/>
        <path class="cls-2" d="M326.69,149.73a16.49,16.49,0,0,1-6.62,1.22,18.28,18.28,0,0,1-6-1,13.68,13.68,0,0,1-5.18-3.24,16.45,16.45,0,0,1-3.67-5.8,27.5,27.5,0,0,1,0-17.35,16.08,16.08,0,0,1,3.67-5.76,13.93,13.93,0,0,1,5.18-3.2,18.28,18.28,0,0,1,6-1,16.92,16.92,0,0,1,6.62,1.19,16.29,16.29,0,0,1,5.4,3.92l-5,4.9a12.29,12.29,0,0,0-3.28-2.66,8.81,8.81,0,0,0-10.48,2.45,8.6,8.6,0,0,0-1.69,3.56,24.41,24.41,0,0,0-.47,5.29,24.92,24.92,0,0,0,.47,5.33,8.61,8.61,0,0,0,1.69,3.6,8.81,8.81,0,0,0,10.48,2.45,12.25,12.25,0,0,0,3.28-2.66l5,4.82A16.76,16.76,0,0,1,326.69,149.73Z"/>
        <path class="cls-2" d="M362.69,150.52V128.13q0-4.17-2.12-6.08a8.09,8.09,0,0,0-10.48,0q-2.16,1.95-2.16,6v22.39h-7.34V99.26h7.34v18.43a11.88,11.88,0,0,1,4.28-3.1,13.21,13.21,0,0,1,5.15-1,14.15,14.15,0,0,1,5.4,1,11,11,0,0,1,4,2.74,11.64,11.64,0,0,1,2.45,4.25A17.14,17.14,0,0,1,370,127v23.54Z"/>
        <path class="cls-2" d="M19,236.92v-6.55l19.73-24A14.37,14.37,0,0,0,40.78,203a9,9,0,0,0,.65-3.49,8.08,8.08,0,0,0-1.94-5.62,7.07,7.07,0,0,0-5.54-2.16,9.26,9.26,0,0,0-2.81.43,6.51,6.51,0,0,0-2.41,1.37A6.85,6.85,0,0,0,27,196a9.32,9.32,0,0,0-.65,3.67H19a15.4,15.4,0,0,1,1.12-5.94,13.06,13.06,0,0,1,3.1-4.57A14.08,14.08,0,0,1,28,186.27a16.64,16.64,0,0,1,6-1,17.4,17.4,0,0,1,6,1,13.27,13.27,0,0,1,4.68,2.88,13,13,0,0,1,3,4.54,15.77,15.77,0,0,1,1.08,6,12.68,12.68,0,0,1-1.22,5.8,29.59,29.59,0,0,1-3.6,5.29L27.9,230.37H48.77v6.55Z"/>
        <path class="cls-2" d="M85.6,228.82a14,14,0,0,1-3.2,4.61,13.79,13.79,0,0,1-4.72,2.92,16.76,16.76,0,0,1-11.45,0,13.79,13.79,0,0,1-4.72-2.92,13.59,13.59,0,0,1-3.17-4.61,15.55,15.55,0,0,1-1.15-6.16V199.91a15.55,15.55,0,0,1,1.15-6.16,13.6,13.6,0,0,1,3.17-4.61,13.84,13.84,0,0,1,4.72-2.92,16.76,16.76,0,0,1,11.45,0,13.84,13.84,0,0,1,4.72,2.92,14.06,14.06,0,0,1,3.2,4.61,15.15,15.15,0,0,1,1.19,6.16v22.75A15.15,15.15,0,0,1,85.6,228.82Zm-6.16-28.69a9,9,0,0,0-2-6,6.88,6.88,0,0,0-5.51-2.3,6.77,6.77,0,0,0-5.47,2.3,9.06,9.06,0,0,0-1.94,6v22.32a9.06,9.06,0,0,0,1.94,6A6.77,6.77,0,0,0,72,230.8a6.88,6.88,0,0,0,5.51-2.3,9,9,0,0,0,2-6Z"/>
        <path class="cls-2" d="M109.4,236.92V193.65l-10,8.78V194.3l10-8.64h7.34v51.26Z"/>
        <path class="cls-2" d="M163.32,228.68a13.7,13.7,0,0,1-3.38,4.72,14.7,14.7,0,0,1-5,3,19.53,19.53,0,0,1-12.38,0,14.32,14.32,0,0,1-5-3,13.92,13.92,0,0,1-3.35-4.72,15.23,15.23,0,0,1-1.22-6.23,13.4,13.4,0,0,1,.61-4.18,13.89,13.89,0,0,1,1.58-3.35,13,13,0,0,1,2.23-2.59,16.25,16.25,0,0,1,2.63-1.91,13.94,13.94,0,0,1-4.36-4.21,11.84,11.84,0,0,1-1.84-6.8,14.2,14.2,0,0,1,1.15-5.83,13.46,13.46,0,0,1,3.17-4.46,14.1,14.1,0,0,1,4.72-2.88,17.48,17.48,0,0,1,11.7,0,14.44,14.44,0,0,1,4.79,2.88,13.26,13.26,0,0,1,3.2,4.46,14.22,14.22,0,0,1,1.15,5.83,11.84,11.84,0,0,1-1.84,6.8,14,14,0,0,1-4.36,4.21,16.34,16.34,0,0,1,2.63,1.91,13,13,0,0,1,2.23,2.59,13.93,13.93,0,0,1,1.58,3.35,13.42,13.42,0,0,1,.61,4.18A15.25,15.25,0,0,1,163.32,228.68ZM156.48,219a8.32,8.32,0,0,0-1.8-2.7,9,9,0,0,0-2.66-1.84,7.94,7.94,0,0,0-3.31-.68,8.19,8.19,0,0,0-3.35.68,8.4,8.4,0,0,0-2.66,1.84,8.74,8.74,0,0,0,0,12.1,7.92,7.92,0,0,0,2.66,1.8,8.59,8.59,0,0,0,3.35.65,8.33,8.33,0,0,0,3.31-.65,8.44,8.44,0,0,0,2.66-1.8,8.3,8.3,0,0,0,1.8-2.7,9,9,0,0,0,0-6.7ZM154.22,194a7.27,7.27,0,0,0-5.51-2.23,7.15,7.15,0,0,0-5.47,2.23,7.9,7.9,0,0,0-2.09,5.62,7.74,7.74,0,0,0,2.09,5.62,7.27,7.27,0,0,0,5.47,2.16,7.39,7.39,0,0,0,5.51-2.16,7.67,7.67,0,0,0,2.12-5.62A7.83,7.83,0,0,0,154.22,194Z"/>
      </g>
    </g>
  </g>
</svg>
