<svg id="圖層_1" data-name="圖層 1" xmlns="http://www.w3.org/2000/svg" viewBox="0 0 813 813"><defs><style>.cls-1{fill:#c7dce2;}.cls-2{fill:#54656e;}</style></defs><title>Telegram</title><circle class="cls-1" cx="406.5" cy="406.5" r="406.5"/><g id="Het1PX.tif"><path class="cls-2" d="M705.16,340.69c-.93,11.48-4.32,23.64-6.91,35.92Q666,529.25,633.55,681.83c-1.25,5.85-2.58,11.71-5.73,16.95q-7.73,12.9-22.39,9.53a44.1,44.1,0,0,1-16.56-8c-32.56-24.17-65.26-48.16-97.73-72.46-4.13-3.09-6.5-2.75-10,.71-16,15.91-32.34,31.51-48.4,47.37-6.13,6.05-12.91,9.68-21.82,9.36-6.3-.22-9.91-2.8-11.83-8.81-10-31.37-20.26-62.68-30.43-94-3.45-10.63-7.09-21.21-10.32-31.91-1.16-3.86-3.15-5.82-7-7-31.87-9.78-63.67-19.8-95.49-29.74-4.2-1.31-8.4-2.63-12.15-5-9.08-5.71-9.81-13.35-1.91-20.58,5.4-4.94,12-7.88,18.71-10.48q65.08-25.14,130.19-50.25Q531.21,373.27,671.77,319.1c.75-.29,1.48-.61,2.23-.89C691.61,311.64,705,320.85,705.16,340.69Zm-294,314.66c1.7-.81,1.55-2,1.63-2.87,2.13-22.86,4.36-45.72,6.23-68.6.47-5.68,2.23-9.92,6.64-13.88q91.64-82.28,182.94-164.88c3.85-3.47,7.74-6.92,11.51-10.49,1.55-1.48,3.59-3.17,2.39-5.61s-4-2.45-6.36-2.17c-4.68.54-8.67,2.83-12.58,5.3Q490.81,463.28,378,534.3c-4.28,2.69-4.87,5.15-3.34,9.72,9.32,27.82,18.34,55.74,27.45,83.63C405.12,636.85,408.12,646.06,411.15,655.35Z" transform="translate(-94 -94)"/></g></svg>