<svg id="圖層_1" data-name="圖層 1" xmlns="http://www.w3.org/2000/svg" viewBox="0 0 813 813"><defs><style>.cls-1{fill:#c7dce2;}.cls-2{fill:#54656e;}</style></defs><title>Twitter</title><circle class="cls-1" cx="406.5" cy="406.5" r="406.5"/><path class="cls-2" d="M735.94,371.74a186.31,186.31,0,0,1-53.67,14.7,93.72,93.72,0,0,0,41.09-51.67A187,187,0,0,1,664,357.43a93.5,93.5,0,0,0-159.2,85.22A265.23,265.23,0,0,1,312.28,345a93.53,93.53,0,0,0,28.9,124.73,92.89,92.89,0,0,1-42.3-11.69c0,.39,0,.79,0,1.18a93.48,93.48,0,0,0,74.95,91.59,92.92,92.92,0,0,1-24.61,3.29,94.15,94.15,0,0,1-17.58-1.67,93.5,93.5,0,0,0,87.27,64.87A188.53,188.53,0,0,1,280.59,656a264.28,264.28,0,0,0,143.19,42c171.84,0,265.81-142.35,265.81-265.82q0-6.07-.27-12.08a189.71,189.71,0,0,0,46.62-48.36Zm0,0" transform="translate(-93 -93)"/></svg>